<svg width="20" height="20" viewBox="0 0 20 20" fill="none" xmlns="http://www.w3.org/2000/svg">
<path d="M0 10C0 4.4776 4.47679 0 9.99919 0C15.5216 0 19.9984 4.4776 19.9984 10C19.9984 15.5224 15.5216 20 9.99919 20C4.47679 20 0 15.5224 0 10Z" fill="#002EA8"/>
<path d="M9.99999 18C5.58373 17.9951 2.00485 14.4163 2 10V9.84001C2.08795 5.44364 5.70767 1.94238 10.1045 2.00072C14.5014 2.05906 18.0269 5.65512 17.9982 10.0523C17.9695 14.4494 14.3972 17.9991 9.99999 18ZM6.328 9.67201L5.2 10.8L8.39999 14L14.8 7.60001L13.672 6.46401L8.39999 11.736L6.328 9.67201Z" fill="#FBFBFB"/>
</svg>