<svg xmlns="http://www.w3.org/2000/svg" xmlns:xlink="http://www.w3.org/1999/xlink" width="194.1" height="65.03" viewBox="0 0 194.1 65.03">
  <defs>
    <clipPath id="b9ac8030-c8c6-4103-b9ce-68649577cf06" transform="translate(-0.96)">
      <rect width="196" height="65" fill="none"/>
    </clipPath>
    <clipPath id="a14adb4b-695a-49ca-bc5a-a991f5380af3" transform="translate(-0.96)">
      <rect x="0.96" width="194.07" height="65" fill="none"/>
    </clipPath>
    <linearGradient id="a7cfa108-ebcd-43ee-bbb5-955cfa60294c" data-name="Degradado sin nombre 12" x1="108.74" y1="480.41" x2="108.95" y2="526.42" gradientTransform="matrix(1, 0, 0, -1, 0, 544)" gradientUnits="userSpaceOnUse">
      <stop offset="0" stop-color="#002ea8"/>
      <stop offset="1" stop-color="blue"/>
    </linearGradient>
    <linearGradient id="eab449ce-0875-4f3d-a4d0-a2a32cd18ed0" x1="129.04" y1="480.32" x2="129.25" y2="526.33" xlink:href="#a7cfa108-ebcd-43ee-bbb5-955cfa60294c"/>
    <linearGradient id="a18c39e3-7bb9-4a7d-8a9a-db9cb0142af5" x1="85.56" y1="480.52" x2="85.77" y2="526.53" xlink:href="#a7cfa108-ebcd-43ee-bbb5-955cfa60294c"/>
    <linearGradient id="b918fa32-eb9e-4282-9187-93e04ca9ebfd" x1="159.12" y1="480.19" x2="159.33" y2="526.2" xlink:href="#a7cfa108-ebcd-43ee-bbb5-955cfa60294c"/>
    <linearGradient id="a41b4ce9-e256-4b44-8c90-185273142f70" x1="185.03" y1="480.07" x2="185.24" y2="526.08" xlink:href="#a7cfa108-ebcd-43ee-bbb5-955cfa60294c"/>
    <linearGradient id="f172456f-5fda-45ae-b295-bd3e4959ebc2" data-name="Degradado sin nombre 7" x1="41.38" y1="490.49" x2="40.14" y2="547.71" gradientTransform="matrix(1, 0, 0, -1, 0, 544)" gradientUnits="userSpaceOnUse">
      <stop offset="0" stop-color="#ff6c00"/>
      <stop offset="1" stop-color="#f80"/>
    </linearGradient>
    <linearGradient id="bcb6210a-67d7-42be-81c4-857e7e3288db" x1="71.75" y1="493.27" x2="70.51" y2="550.49" xlink:href="#f172456f-5fda-45ae-b295-bd3e4959ebc2"/>
    <linearGradient id="f0c53a89-a1cd-4fe0-b7ff-172d5ca7578e" x1="15.78" y1="495.76" x2="7.05" y2="513.37" xlink:href="#a7cfa108-ebcd-43ee-bbb5-955cfa60294c"/>
    <linearGradient id="e31ee72f-32e6-45d1-b365-84a918fd5214" x1="14.88" y1="493.89" x2="6.29" y2="511.21" xlink:href="#a7cfa108-ebcd-43ee-bbb5-955cfa60294c"/>
    <linearGradient id="bb83c364-6de4-4a96-8682-21c0d46fa73d" x1="15.46" y1="494.82" x2="6.8" y2="512.31" xlink:href="#a7cfa108-ebcd-43ee-bbb5-955cfa60294c"/>
    <linearGradient id="a1da40c3-c0f2-4243-b3ba-7f5c8a078bfe" x1="56.24" y1="488.94" x2="56.24" y2="525.65" xlink:href="#a7cfa108-ebcd-43ee-bbb5-955cfa60294c"/>
    <linearGradient id="f5818603-4de8-4f01-b725-dd2d09eefb20" x1="23.54" y1="488.94" x2="23.54" y2="525.65" xlink:href="#a7cfa108-ebcd-43ee-bbb5-955cfa60294c"/>
  </defs>
  <g id="b49b5dec-6165-46df-b393-e9d0107e42ae" data-name="Capa 2">
    <g id="a42bb84e-ec5d-4b44-b858-08652b45ae48" data-name="Capa 1">
      <g clip-path="url(#b9ac8030-c8c6-4103-b9ce-68649577cf06)">
        <g clip-path="url(#a14adb4b-695a-49ca-bc5a-a991f5380af3)">
          <g>
            <path d="M112.24,47.33a3.27,3.27,0,0,1-2.79-1.23,3.74,3.74,0,0,1-.7-3.1l3.43-24.46a2.45,2.45,0,0,0-.6-2,2.32,2.32,0,0,0-1.8-.83,3.11,3.11,0,0,0-2.16.93,3.48,3.48,0,0,0-1.16,1.93L103,43a9.34,9.34,0,0,0,.24,3.73,8.49,8.49,0,0,0,1.59,3.16,8.26,8.26,0,0,0,2.69,2.17,7.75,7.75,0,0,0,3.49.8h.8a4.86,4.86,0,0,0,1.86-1,3.12,3.12,0,0,0,1-1.73,2.51,2.51,0,0,0-.6-2A2.38,2.38,0,0,0,112.24,47.33Z" transform="translate(-0.96)" fill="url(#a7cfa108-ebcd-43ee-bbb5-955cfa60294c)"/>
            <path d="M138.47,44.1a3.39,3.39,0,0,0-2.23.8h.07a8.7,8.7,0,0,1-2.6,1.53,9.32,9.32,0,0,1-3.35.56,7,7,0,0,1-3.13-.69,7.25,7.25,0,0,1-2.36-1.87,6.78,6.78,0,0,1-1.36-2.69,8.11,8.11,0,0,1-.17-3.23l1.2-8.49h13.2a2.89,2.89,0,0,0,2.06-.93A3.7,3.7,0,0,0,141,27a2.81,2.81,0,0,0-.5-2.06,2.21,2.21,0,0,0-1.86-.9H125.4l.73-5.23a3.24,3.24,0,0,0-.63-2.23,2.37,2.37,0,0,0-2-.89,3.15,3.15,0,0,0-2.29,1,3.86,3.86,0,0,0-1.13,2.17l-2.76,19.7a13.86,13.86,0,0,0,.43,5.89A12.38,12.38,0,0,0,120.32,49a11.12,11.12,0,0,0,4.22,2.89,14.53,14.53,0,0,0,5.48,1,13.75,13.75,0,0,0,5.32-1,17.2,17.2,0,0,0,4.79-3h-.07a2,2,0,0,0,.67-.83,3.43,3.43,0,0,0,.26-1,2.29,2.29,0,0,0-.53-2A2.46,2.46,0,0,0,138.47,44.1Z" transform="translate(-0.96)" fill="url(#eab449ce-0875-4f3d-a4d0-a2a32cd18ed0)"/>
            <path d="M97.35,29.42a10.69,10.69,0,0,0-3.45-3.09,11.39,11.39,0,0,0-4.63-1.5c-.29,0-.56-.07-.79-.07h-.8a14.61,14.61,0,0,0-8,2.33,17.84,17.84,0,0,0-5.88,6.09,18.08,18.08,0,0,0-1.26,2.73,16.42,16.42,0,0,0-.73,2.9,13.82,13.82,0,0,0-.1,2.93,10.88,10.88,0,0,0,.5,2.69,11.9,11.9,0,0,0,4.18,6.06,11.65,11.65,0,0,0,7.32,2.36,15.58,15.58,0,0,0,3.12-.3c.53-.16,1-.3,1.5-.46s.92-.34,1.39-.54c.23-.1.63-.3,1.16-.56l1.1-.53a1.82,1.82,0,0,0,.27,1.26,2.12,2.12,0,0,0,.73.73,2.55,2.55,0,0,0,.9.34c.33,0,.59.06.86.06A3.42,3.42,0,0,0,98,50l1.56-11.21a13.76,13.76,0,0,0-.23-5.1A12.11,12.11,0,0,0,97.35,29.42ZM92.76,42.1a10.09,10.09,0,0,1-2.12,2.63,9.73,9.73,0,0,1-2.89,1.77,8.67,8.67,0,0,1-3.26.63,6.6,6.6,0,0,1-2.89-.67,7.73,7.73,0,0,1-2.4-1.8A7.63,7.63,0,0,1,77.71,42a7.1,7.1,0,0,1-.23-3.27,9.09,9.09,0,0,1,1.09-3.19,10.72,10.72,0,0,1,5-4.49,8.08,8.08,0,0,1,3.19-.67,6.71,6.71,0,0,1,3.06.7A7,7,0,0,1,92.2,33a6.78,6.78,0,0,1,1.43,2.66,7.34,7.34,0,0,1,.2,3.16A7.52,7.52,0,0,1,92.76,42.1Z" transform="translate(-0.96)" fill="url(#a18c39e3-7bb9-4a7d-8a9a-db9cb0142af5)"/>
            <path d="M170.37,29a12.35,12.35,0,0,0-4-3.13,11.21,11.21,0,0,0-5.12-1.2,13.57,13.57,0,0,0-5.55,1.2A18.82,18.82,0,0,0,150.8,29a17.79,17.79,0,0,0-3.69,4.52,14.79,14.79,0,0,0-1.86,5.36,13.29,13.29,0,0,0,.33,5.53A12.74,12.74,0,0,0,148,49a11.21,11.21,0,0,0,4,3.09,10.83,10.83,0,0,0,5.19,1,18.33,18.33,0,0,0,4.09-.56,10.7,10.7,0,0,0,3.62-1.73l-.07.13a2.17,2.17,0,0,0,.73-.93,3.39,3.39,0,0,0,.27-1,2.61,2.61,0,0,0-2.39-3,3.06,3.06,0,0,0-1.73.53c-.43.17-1,.33-1.56.53a6.65,6.65,0,0,1-2.1.3,7.82,7.82,0,0,1-4.19-1.26,8.94,8.94,0,0,1-3.25-4.29h19.21A3.13,3.13,0,0,0,172.1,41a3.27,3.27,0,0,0,1.13-2.06,11.63,11.63,0,0,0-.43-5.36A11.75,11.75,0,0,0,170.37,29Zm-19,6.95a.45.45,0,0,1,.13-.23A13.74,13.74,0,0,1,155.35,32a9.22,9.22,0,0,1,5.05-1.5,7.15,7.15,0,0,1,4.52,1.5,9.73,9.73,0,0,1,3,3.8v.13s0,.06,0,.06H151.36Z" transform="translate(-0.96)" fill="url(#b918fa32-eb9e-4282-9187-93e04ca9ebfd)"/>
            <path d="M194.34,25.73a2.32,2.32,0,0,0-1.76-.93A15.38,15.38,0,0,0,187.12,26a18.56,18.56,0,0,0-4.78,2.9,16.88,16.88,0,0,0-3.59,4.26,14.71,14.71,0,0,0-1.89,5.29l-1.63,11.68a3.08,3.08,0,0,0,.66,2,2.15,2.15,0,0,0,1.73.8,3.1,3.1,0,0,0,2-.77,3.79,3.79,0,0,0,1.19-1.73l1.63-11.55a8.58,8.58,0,0,1,1.13-3.29,10.33,10.33,0,0,1,2.13-2.63,9.51,9.51,0,0,1,2.86-1.77,8.43,8.43,0,0,1,3.22-.63,3.1,3.1,0,0,0,2.06-.9,4.09,4.09,0,0,0,1.2-1.93A3.34,3.34,0,0,0,194.34,25.73Z" transform="translate(-0.96)" fill="url(#a41b4ce9-e256-4b44-8c90-185273142f70)"/>
            <path d="M40.45,0A10.43,10.43,0,0,0,30.08,10.48,15.18,15.18,0,0,0,31.71,16a1.22,1.22,0,0,0,.07.17,80.76,80.76,0,0,0,7.14,11.71c.37.5.7,1,1,1.33s.39.57.56.77a2.1,2.1,0,0,0,.2-.27,93.24,93.24,0,0,0,8.47-13.58,14.56,14.56,0,0,0,1.7-5.66A10.41,10.41,0,0,0,40.45,0Zm0,14.34a3.85,3.85,0,0,1-3.76-3.12,5,5,0,0,1-.13-1,3.82,3.82,0,0,1,7.58-.73,4.28,4.28,0,0,1,.13,1A3.83,3.83,0,0,1,40.45,14.34Z" transform="translate(-0.96)" fill="url(#f172456f-5fda-45ae-b295-bd3e4959ebc2)"/>
            <path d="M79.34,14.31,68.77,8.22,62.69,18.77l10.53,6.09Z" transform="translate(-0.96)" fill="url(#bcb6210a-67d7-42be-81c4-857e7e3288db)"/>
            <path d="M11.14,41.87C10,41.87,9,42.4,9,43.53s1,1.67,2.1,1.67h7.74L17,41.87Z" transform="translate(-0.96)" fill="url(#f0c53a89-a1cd-4fe0-b7ff-172d5ca7578e)"/>
            <path d="M1,33.22c0,1.13,1,1.66,2.1,1.66h10L11.2,31.55H3.06C1.93,31.55,1,32.08,1,33.22Z" transform="translate(-0.96)" fill="url(#e31ee72f-32e6-45d1-b365-84a918fd5214)"/>
            <path d="M5.25,38.37c0,1.14,1,1.67,2.1,1.67H16l-1.86-3.33H7.35C6.18,36.71,5.25,37.24,5.25,38.37Z" transform="translate(-0.96)" fill="url(#bb83c364-6de4-4a96-8682-21c0d46fa73d)"/>
            <path d="M54,34.11,47.83,23.2A84,84,0,0,1,40.48,35l8.38,14.81A5.74,5.74,0,0,0,54,52.85a5.81,5.81,0,0,0,5.12-3.06L72,27,61.46,20.83Z" transform="translate(-0.96)" fill="url(#a1da40c3-c0f2-4243-b3ba-7f5c8a078bfe)"/>
            <path d="M39,33.35a75,75,0,0,1-6.18-10.19s0-.1-.07-.13L26.69,34.65,18,19.27a5.66,5.66,0,0,0-8.24-2.1,7,7,0,0,0-1.9,9.12l1.63,2.9.47.8,11.2,19.7v0l.1.2L22,51.15a5.67,5.67,0,0,0,5.92,2.3,5.92,5.92,0,0,0,4.32-3.19L40.15,35c-.1-.13-.23-.33-.36-.53S39.29,33.78,39,33.35Z" transform="translate(-0.96)" fill="url(#f5818603-4de8-4f01-b725-dd2d09eefb20)"/>
            <path d="M75.22,65a5.12,5.12,0,0,1-1.33-.17,3,3,0,0,1-1-.5,1.78,1.78,0,0,1-.56-.76,3.41,3.41,0,0,1-.24-1h.94a1.45,1.45,0,0,0,.23.7,1.57,1.57,0,0,0,.46.5,2.17,2.17,0,0,0,.67.3,2.78,2.78,0,0,0,.8.1,2.52,2.52,0,0,0,.73-.1,2.24,2.24,0,0,0,.56-.24,1,1,0,0,0,.37-.39,1,1,0,0,0,.13-.5.8.8,0,0,0-.13-.5.86.86,0,0,0-.4-.37,2.24,2.24,0,0,0-.7-.26l-1.06-.27c-.4-.1-.77-.2-1.07-.3a3.13,3.13,0,0,1-.73-.43,1.49,1.49,0,0,1-.43-.57,1.81,1.81,0,0,1,.07-1.5,2,2,0,0,1,.53-.63,2.92,2.92,0,0,1,.8-.43A3.51,3.51,0,0,1,75,57.51a3.86,3.86,0,0,1,1.1.13,2.33,2.33,0,0,1,.86.44,2.07,2.07,0,0,1,.57.7,2.71,2.71,0,0,1,.23.9h-.93c-.1-.87-.7-1.3-1.8-1.3a2.11,2.11,0,0,0-1.23.3.89.89,0,0,0-.43.79,1.34,1.34,0,0,0,.07.4,1,1,0,0,0,.26.3,1.94,1.94,0,0,0,.5.24c.2.06.47.13.8.2s.43.1.67.13a4.24,4.24,0,0,1,.66.2,3.64,3.64,0,0,1,.6.27,1.87,1.87,0,0,1,.83.93,1.59,1.59,0,0,1,.13.73,1.92,1.92,0,0,1-.2.87,2.3,2.3,0,0,1-.56.69,2.55,2.55,0,0,1-.83.44A3.11,3.11,0,0,1,75.22,65Z" transform="translate(-0.96)" fill="#f80"/>
            <path d="M87.25,57.54a3.74,3.74,0,0,1,1.39.27,2.78,2.78,0,0,1,1.1.77,4.57,4.57,0,0,1,.73,1.16,4.43,4.43,0,0,1,.27,1.53,4.34,4.34,0,0,1-.27,1.53,3.39,3.39,0,0,1-.7,1.2,2.85,2.85,0,0,1-1.09.77,3.9,3.9,0,0,1-2.8,0A2.92,2.92,0,0,1,84.79,64a3.55,3.55,0,0,1-.7-1.2,4.34,4.34,0,0,1-.27-1.53,4.43,4.43,0,0,1,.27-1.53,2.88,2.88,0,0,1,.73-1.16,4.34,4.34,0,0,1,1.1-.77A2.78,2.78,0,0,1,87.25,57.54Zm0,6.66a2.28,2.28,0,0,0,1-.2,2.63,2.63,0,0,0,.8-.56,2.37,2.37,0,0,0,.5-.94,3.56,3.56,0,0,0,.2-1.23,3.65,3.65,0,0,0-.2-1.23,3,3,0,0,0-.5-.9,2.46,2.46,0,0,0-.76-.56,2.28,2.28,0,0,0-1-.2,2.31,2.31,0,0,0-1,.2,2.63,2.63,0,0,0-.8.56,2.93,2.93,0,0,0-.53.93,3.91,3.91,0,0,0,0,2.47,3.58,3.58,0,0,0,.5.93,2.09,2.09,0,0,0,.76.57A3.13,3.13,0,0,0,87.25,64.2Z" transform="translate(-0.96)" fill="#f80"/>
            <path d="M101.31,64.9H96.82V57.68h1V64h3.53Z" transform="translate(-0.96)" fill="#f80"/>
            <path d="M110.18,65a3.78,3.78,0,0,1-1.13-.13,2.93,2.93,0,0,1-.8-.37,1.87,1.87,0,0,1-.49-.53,2.19,2.19,0,0,1-.27-.67,4,4,0,0,1-.13-.73c0-.27,0-.5,0-.73v-4.2h1v4.17a4.08,4.08,0,0,0,.13,1.19,1.65,1.65,0,0,0,.37.7,1.07,1.07,0,0,0,.59.34,3.24,3.24,0,0,0,.8.1,3.18,3.18,0,0,0,.8-.1,1.19,1.19,0,0,0,.6-.37,2.1,2.1,0,0,0,.36-.7,5.1,5.1,0,0,0,.14-1.16V57.64h1v4.2a5.46,5.46,0,0,1-.13,1.33,2.38,2.38,0,0,1-.47,1,2.29,2.29,0,0,1-.86.63A3.4,3.4,0,0,1,110.18,65Z" transform="translate(-0.96)" fill="#f80"/>
            <path d="M125.47,59.84h-1a1.37,1.37,0,0,0-.16-.63,1.28,1.28,0,0,0-.43-.47,2.25,2.25,0,0,0-.6-.3,2.92,2.92,0,0,0-.73-.1,2.48,2.48,0,0,0-1,.2,2.21,2.21,0,0,0-.77.57,2.73,2.73,0,0,0-.46.9,4.57,4.57,0,0,0-.17,1.26,4.34,4.34,0,0,0,.17,1.23,2.94,2.94,0,0,0,.46.94,2.46,2.46,0,0,0,.73.56,2.19,2.19,0,0,0,1,.2,2.68,2.68,0,0,0,.76-.1,1.54,1.54,0,0,0,.6-.3,1.41,1.41,0,0,0,.4-.5,2.05,2.05,0,0,0,.2-.7h1a2.75,2.75,0,0,1-.3,1,2.59,2.59,0,0,1-.63.76,3,3,0,0,1-.9.47,4,4,0,0,1-2.53-.1A3.07,3.07,0,0,1,120,64a3.21,3.21,0,0,1-.67-1.16,4.76,4.76,0,0,1-.23-1.57,4.82,4.82,0,0,1,.23-1.56,4.07,4.07,0,0,1,.67-1.2,3.18,3.18,0,0,1,1.06-.77,3.88,3.88,0,0,1,1.4-.26,4.18,4.18,0,0,1,1.1.16,2.52,2.52,0,0,1,.89.47,2.11,2.11,0,0,1,.63.73A2,2,0,0,1,125.47,59.84Z" transform="translate(-0.96)" fill="#f80"/>
            <path d="M132.75,64.9h-1V57.68h1Z" transform="translate(-0.96)" fill="#f80"/>
            <path d="M142.49,57.54a3.74,3.74,0,0,1,1.39.27,2.78,2.78,0,0,1,1.1.77,4.57,4.57,0,0,1,.73,1.16,4.43,4.43,0,0,1,.27,1.53,4.34,4.34,0,0,1-.27,1.53A3.39,3.39,0,0,1,145,64a2.92,2.92,0,0,1-1.09.77,4,4,0,0,1-1.4.26,4,4,0,0,1-1.4-.26A2.92,2.92,0,0,1,140,64a3.55,3.55,0,0,1-.7-1.2,4.34,4.34,0,0,1-.27-1.53,4.43,4.43,0,0,1,.27-1.53,2.88,2.88,0,0,1,.73-1.16,4.34,4.34,0,0,1,1.1-.77A2.78,2.78,0,0,1,142.49,57.54Zm0,6.66a2.31,2.31,0,0,0,1-.2,2.63,2.63,0,0,0,.8-.56,2.37,2.37,0,0,0,.5-.94,3.56,3.56,0,0,0,.2-1.23,3.65,3.65,0,0,0-.2-1.23,3,3,0,0,0-.5-.9,2.58,2.58,0,0,0-.76-.56,2.53,2.53,0,0,0-2,0,2.71,2.71,0,0,0-.79.56,3,3,0,0,0-.54.93,3.91,3.91,0,0,0,0,2.47,3.91,3.91,0,0,0,.5.93,2.21,2.21,0,0,0,.77.57A3.43,3.43,0,0,0,142.46,64.2Z" transform="translate(-0.96)" fill="#f80"/>
            <path d="M157.74,64.9h-1L153,59.21V64.9h-.9V57.68h1l3.79,5.72V57.68h.89Z" transform="translate(-0.96)" fill="#f80"/>
            <path d="M169.64,64.9h-5.38V57.68h5.22v.86h-4.29v2.2h4v.87h-4v2.46h4.45Z" transform="translate(-0.96)" fill="#f80"/>
            <path d="M178.58,65a5.18,5.18,0,0,1-1.33-.17,3,3,0,0,1-1-.5,1.7,1.7,0,0,1-.56-.76,2.88,2.88,0,0,1-.24-1h.93a1.7,1.7,0,0,0,.23.7,1.73,1.73,0,0,0,.47.5,2.17,2.17,0,0,0,.67.3,2.71,2.71,0,0,0,.79.1,2.43,2.43,0,0,0,.73-.1,2.33,2.33,0,0,0,.57-.24,1,1,0,0,0,.36-.39.89.89,0,0,0,.14-.5.74.74,0,0,0-.14-.5.78.78,0,0,0-.39-.37,2.24,2.24,0,0,0-.7-.26c-.3-.07-.63-.17-1.07-.27s-.76-.2-1.06-.3a3.13,3.13,0,0,1-.73-.43,1.49,1.49,0,0,1-.43-.57,1.54,1.54,0,0,1-.13-.7,1.63,1.63,0,0,1,.19-.8,2,2,0,0,1,.54-.63,2.86,2.86,0,0,1,.79-.43,3.63,3.63,0,0,1,1.07-.17,3.75,3.75,0,0,1,1.09.13,2.3,2.3,0,0,1,.87.44,1.93,1.93,0,0,1,.56.7,2.72,2.72,0,0,1,.24.9h-.94c-.09-.87-.69-1.3-1.79-1.3a2.11,2.11,0,0,0-1.23.3.89.89,0,0,0-.43.79,1.34,1.34,0,0,0,.07.4,1,1,0,0,0,.26.3,1.79,1.79,0,0,0,.5.24c.2.06.46.13.8.2s.43.1.66.13a4.37,4.37,0,0,1,.67.2,3.2,3.2,0,0,1,.59.27,1.41,1.41,0,0,1,.5.4,1.38,1.38,0,0,1,.34.53,1.59,1.59,0,0,1,.13.73,1.92,1.92,0,0,1-.2.87,2.19,2.19,0,0,1-.57.69,2.45,2.45,0,0,1-.83.44A3.07,3.07,0,0,1,178.58,65Z" transform="translate(-0.96)" fill="#f80"/>
          </g>
        </g>
      </g>
    </g>
  </g>
</svg>
