<svg width="24" height="24" viewBox="0 0 24 24" fill="none" xmlns="http://www.w3.org/2000/svg">
<path d="M3 12C3 16.9582 7.03364 21 12 21C16.9664 21 21 16.9664 21 12C21 7.03364 16.9582 3 12 3C7.04182 3 3 7.03364 3 12ZM19.3555 12C19.3555 16.0582 16.05 19.3636 11.9918 19.3636C7.93364 19.3636 4.62818 16.0582 4.62818 12C4.62818 7.94182 7.93364 4.63636 11.9918 4.63636C16.05 4.63636 19.3555 7.94182 19.3555 12Z" fill="#002EA8"/>
<path d="M11.0182 7.09091V8.04818C10.0609 8.38364 9.38182 9.29182 9.38182 10.3636C9.38182 11.7136 10.4864 12.8182 11.8364 12.8182C12.2864 12.8182 12.6545 13.1864 12.6545 13.6364C12.6545 14.0864 12.2864 14.4545 11.8364 14.4545C11.4845 14.4545 11.1082 14.2336 10.7727 13.8327C10.4782 13.4891 9.96273 13.44 9.61909 13.7345C9.27545 14.0291 9.22636 14.5445 9.52091 14.8882C9.95455 15.4118 10.47 15.7718 11.0182 15.9518V16.9091C11.0182 17.3591 11.3864 17.7273 11.8364 17.7273C12.2864 17.7273 12.6545 17.3591 12.6545 16.9091V15.9518C13.6036 15.6164 14.2909 14.7082 14.2909 13.6364C14.2909 12.2864 13.1864 11.1818 11.8364 11.1818C11.3864 11.1818 11.0182 10.8136 11.0182 10.3636C11.0182 9.91364 11.3864 9.54545 11.8364 9.54545C12.1227 9.54545 12.4336 9.69273 12.72 9.97091C13.0473 10.2818 13.5627 10.2736 13.8736 9.95455C14.1845 9.62727 14.1764 9.11182 13.8573 8.80091C13.44 8.4 13.0227 8.17091 12.6545 8.04818V7.09091C12.6545 6.64091 12.2864 6.27273 11.8364 6.27273C11.3864 6.27273 11.0182 6.64091 11.0182 7.09091Z" fill="#002EA8"/>
</svg>
