<svg xmlns="http://www.w3.org/2000/svg" width="249" height="45" viewBox="0 0 249 45">
  <g id="ae8083a2-0e32-42ec-9548-a897e0162c92" data-name="Capa 2">
    <g id="aa0c56f8-1f4a-495f-80f8-e476f42f6158" data-name="Capa 1">
      <path d="M22.5,0h204A22.5,22.5,0,0,1,249,22.5h0A22.5,22.5,0,0,1,226.5,45H22.5A22.5,22.5,0,0,1,0,22.5H0A22.5,22.5,0,0,1,22.5,0Z" fill="#c1d2ff"/>
      <path d="M18,32.5a10,10,0,1,1,10-10A10,10,0,0,1,18,32.5Zm-8-9.83a8,8,0,1,0,0-.17Zm9,4.83H17v-4H13v-2h4v-4h2v4h4v2H19Z" fill="#002ea8"/>
      <rect x="32" y="6" width="211" height="33" rx="16" fill="#fff"/>
      <path d="M40.36,29h2.23l.88-2.81h5.12L49.48,29h2.23L47.62,16H44.45Zm3.75-4.83,1.9-6,1.93,6Zm13.12,5.1a4.25,4.25,0,0,0,1.38-.21,3.73,3.73,0,0,0,1.13-.56v.93A1.89,1.89,0,0,1,59.1,31a2.59,2.59,0,0,1-1.67.53,2.43,2.43,0,0,1-1.09-.26,1.83,1.83,0,0,1-.78-.78l-2,1A4,4,0,0,0,55.16,33a4.65,4.65,0,0,0,2.26.57,5.62,5.62,0,0,0,2.83-.67,3.09,3.09,0,0,0,1.52-2.08,5,5,0,0,0,.1-.66c0-.22,0-.46,0-.71V19.28H60V20a3.79,3.79,0,0,0-1.19-.72,4.63,4.63,0,0,0-3.9.42,4.51,4.51,0,0,0-1.57,1.82,6.08,6.08,0,0,0-.55,2.64,6,6,0,0,0,.55,2.62,4.4,4.4,0,0,0,1.54,1.83A4,4,0,0,0,57.23,29.27Zm.34-1.94a2.25,2.25,0,0,1-1.4-.43,2.56,2.56,0,0,1-.82-1.15,4.81,4.81,0,0,1-.26-1.61,4.51,4.51,0,0,1,.27-1.6,2.56,2.56,0,0,1,.84-1.15A2.31,2.31,0,0,1,57.64,21a2,2,0,0,1,1.8.89,4.15,4.15,0,0,1,.57,2.3,4.19,4.19,0,0,1-.57,2.3A2,2,0,0,1,57.57,27.33ZM64.43,29h2.18V24.06a3.55,3.55,0,0,1,.3-1.5,2.25,2.25,0,0,1,1-1,2.3,2.3,0,0,1,1-.31,2.68,2.68,0,0,1,1,.08v-2a3.84,3.84,0,0,0-1.35,0,3.17,3.17,0,0,0-1.23.48,2.45,2.45,0,0,0-.55.46,2.75,2.75,0,0,0-.42.59V19.28H64.43Zm11.43.27a4.79,4.79,0,0,0,2.57-.72,4.33,4.33,0,0,0,1.72-2.05L78,25.85a2.32,2.32,0,0,1-2.28,1.39A2.37,2.37,0,0,1,74,26.6a3,3,0,0,1-.77-1.86h7a6.64,6.64,0,0,0-.39-3,4.12,4.12,0,0,0-1.57-2,4.51,4.51,0,0,0-2.57-.7,4.87,4.87,0,0,0-2.52.65,4.4,4.4,0,0,0-1.7,1.82,6,6,0,0,0-.61,2.77,5.41,5.41,0,0,0,.62,2.61,4.58,4.58,0,0,0,1.75,1.77A5.08,5.08,0,0,0,75.86,29.27Zm0-8.36a2.12,2.12,0,0,1,1.55.53,2.7,2.7,0,0,1,.7,1.66H73.28A2.35,2.35,0,0,1,75.82,20.91Zm10.35,8.36a4.24,4.24,0,0,0,1.37-.21,3.62,3.62,0,0,0,1.13-.56v.93A1.87,1.87,0,0,1,88,31a2.57,2.57,0,0,1-1.67.53,2.46,2.46,0,0,1-1.09-.26,1.83,1.83,0,0,1-.78-.78l-2,1A4,4,0,0,0,84.1,33a4.63,4.63,0,0,0,2.26.57,5.58,5.58,0,0,0,2.82-.67,3.09,3.09,0,0,0,1.52-2.08,5,5,0,0,0,.1-.66,5.33,5.33,0,0,0,0-.71V19.28h-1.9V20a3.68,3.68,0,0,0-1.19-.72,4.63,4.63,0,0,0-3.9.42,4.41,4.41,0,0,0-1.56,1.82,6.09,6.09,0,0,0-.56,2.64,6,6,0,0,0,.55,2.62,4.35,4.35,0,0,0,1.55,1.83A4,4,0,0,0,86.17,29.27Zm.33-1.94a2.25,2.25,0,0,1-1.4-.43,2.54,2.54,0,0,1-.81-1.15A4.57,4.57,0,0,1,84,24.14a4.51,4.51,0,0,1,.27-1.6,2.56,2.56,0,0,1,.84-1.15A2.31,2.31,0,0,1,86.57,21a2,2,0,0,1,1.8.89,4.15,4.15,0,0,1,.57,2.3,4.19,4.19,0,0,1-.57,2.3A2,2,0,0,1,86.5,27.33Zm9.58,1.94a4.68,4.68,0,0,0,2-.38,3.8,3.8,0,0,0,1.44-1.2V29h1.9V23c0-.42,0-.8,0-1.16a3.11,3.11,0,0,0-.32-1.05,2.89,2.89,0,0,0-1.47-1.39A5.71,5.71,0,0,0,97.28,19a4.51,4.51,0,0,0-2.73.75,3.64,3.64,0,0,0-1.38,2l2,.62A1.67,1.67,0,0,1,96,21.31,2.74,2.74,0,0,1,97.28,21a2.17,2.17,0,0,1,1.45.4,1.73,1.73,0,0,1,.54,1.24c-.86.12-1.65.25-2.38.37a11.14,11.14,0,0,0-1.85.42,3.4,3.4,0,0,0-1.69,1.12,3,3,0,0,0-.53,1.79,2.91,2.91,0,0,0,.37,1.46,2.73,2.73,0,0,0,1.11,1.07A3.6,3.6,0,0,0,96.08,29.27Zm.43-1.73a1.76,1.76,0,0,1-1.17-.35,1.13,1.13,0,0,1-.39-.88,1.06,1.06,0,0,1,.3-.78,2.73,2.73,0,0,1,.87-.5,10.8,10.8,0,0,1,1.24-.3c.48-.09,1.1-.19,1.88-.31,0,.23,0,.48,0,.76a2.43,2.43,0,0,1-.17.75,2.16,2.16,0,0,1-.42.71,2.39,2.39,0,0,1-.83.64A2.86,2.86,0,0,1,96.51,27.54ZM103.73,29h2.18V24.06a3.41,3.41,0,0,1,.31-1.5,2.2,2.2,0,0,1,1-1,2.26,2.26,0,0,1,1-.31,2.63,2.63,0,0,1,1,.08v-2a3.85,3.85,0,0,0-1.35,0,3.17,3.17,0,0,0-1.23.48,2.69,2.69,0,0,0-.55.46,3.14,3.14,0,0,0-.42.59V19.28h-1.92Zm15.09.27a4.93,4.93,0,0,0,2.55-.65,4.61,4.61,0,0,0,1.69-1.81,5.71,5.71,0,0,0,.61-2.67,5.63,5.63,0,0,0-.6-2.65,4.46,4.46,0,0,0-1.7-1.82,5.23,5.23,0,0,0-5.07,0,4.47,4.47,0,0,0-1.7,1.8,5.61,5.61,0,0,0-.61,2.68,5.69,5.69,0,0,0,.59,2.66,4.54,4.54,0,0,0,1.69,1.81A4.84,4.84,0,0,0,118.82,29.27Zm0-2a2.24,2.24,0,0,1-1.9-.84,3.65,3.65,0,0,1-.64-2.26,3.72,3.72,0,0,1,.61-2.23,2.22,2.22,0,0,1,1.93-.87,2.28,2.28,0,0,1,1.92.85,3.66,3.66,0,0,1,.63,2.25,3.68,3.68,0,0,1-.63,2.23A2.21,2.21,0,0,1,118.82,27.24ZM131.35,29V27.18a6.54,6.54,0,0,1-1.62.07,1.27,1.27,0,0,1-1-.6,1.47,1.47,0,0,1-.18-.72c0-.3,0-.64,0-1V21h2.85v-1.7H128.5v-2.7h-2.16v2.7h-1.77V21h1.77V25c0,.56,0,1.06,0,1.49a2.88,2.88,0,0,0,.36,1.28,2.32,2.32,0,0,0,1.1,1,4.33,4.33,0,0,0,1.65.33A8.71,8.71,0,0,0,131.35,29Zm2.09,0h2.18V24.06a3.55,3.55,0,0,1,.3-1.5,2.25,2.25,0,0,1,1-1,2.3,2.3,0,0,1,1-.31,2.68,2.68,0,0,1,1,.08v-2a3.84,3.84,0,0,0-1.35,0,3.17,3.17,0,0,0-1.23.48,2.45,2.45,0,0,0-.55.46,3.14,3.14,0,0,0-.42.59V19.28h-1.92Zm9.68.27a4.68,4.68,0,0,0,2-.38,3.8,3.8,0,0,0,1.44-1.2V29h1.9V23a10.44,10.44,0,0,0-.06-1.16,3,3,0,0,0-1.78-2.44,5.71,5.71,0,0,0-2.27-.42,4.51,4.51,0,0,0-2.73.75,3.64,3.64,0,0,0-1.38,2l2,.62a1.67,1.67,0,0,1,.86-1.05,2.71,2.71,0,0,1,1.27-.31,2.17,2.17,0,0,1,1.45.4,1.69,1.69,0,0,1,.53,1.24c-.85.12-1.64.25-2.37.37a11.28,11.28,0,0,0-1.86.42,3.37,3.37,0,0,0-1.68,1.12,3,3,0,0,0-.53,1.79,2.91,2.91,0,0,0,.37,1.46,2.73,2.73,0,0,0,1.11,1.07A3.6,3.6,0,0,0,143.12,29.27Zm.43-1.73a1.76,1.76,0,0,1-1.17-.35,1.14,1.14,0,0,1-.4-.88,1.06,1.06,0,0,1,.31-.78,2.73,2.73,0,0,1,.87-.5,10.8,10.8,0,0,1,1.24-.3c.48-.09,1.1-.19,1.88-.31,0,.23,0,.48-.05.76a2.43,2.43,0,0,1-.17.75,2.16,2.16,0,0,1-.42.71,2.48,2.48,0,0,1-.83.64A2.86,2.86,0,0,1,143.55,27.54Zm14.72,1.73a4.48,4.48,0,0,0,1.56-.26,3.87,3.87,0,0,0,1.21-.73V29H163V16h-2.19v3.72a3.39,3.39,0,0,0-1.09-.55,4.27,4.27,0,0,0-1.33-.2,4.21,4.21,0,0,0-2.39.67,4.51,4.51,0,0,0-1.57,1.82,6.62,6.62,0,0,0,0,5.26,4.49,4.49,0,0,0,1.55,1.83A4,4,0,0,0,158.27,29.27Zm.34-1.94a2.25,2.25,0,0,1-1.4-.43,2.56,2.56,0,0,1-.82-1.15,4.81,4.81,0,0,1-.26-1.61,4.51,4.51,0,0,1,.27-1.6,2.56,2.56,0,0,1,.84-1.15,2.31,2.31,0,0,1,1.44-.44,2,2,0,0,1,1.8.89,4.15,4.15,0,0,1,.56,2.3,4.19,4.19,0,0,1-.56,2.3A2,2,0,0,1,158.61,27.33Zm7-9.53h2.17v-2h-2.17Zm0,11.2h2.17V19.28h-2.17Zm4.87,0h2.18V24.06a3.55,3.55,0,0,1,.3-1.5,2.25,2.25,0,0,1,1-1,2.3,2.3,0,0,1,1-.31,2.68,2.68,0,0,1,1,.08v-2a3.84,3.84,0,0,0-1.35,0,3.17,3.17,0,0,0-1.23.48,2.45,2.45,0,0,0-.55.46,3.14,3.14,0,0,0-.42.59V19.28h-1.92Zm11.43.27a4.79,4.79,0,0,0,2.57-.72,4.41,4.41,0,0,0,1.73-2.05l-2.15-.65a2.31,2.31,0,0,1-2.27,1.39,2.4,2.4,0,0,1-1.75-.64,3,3,0,0,1-.76-1.86h7a6.79,6.79,0,0,0-.38-3,4.2,4.2,0,0,0-1.58-2,4.5,4.5,0,0,0-2.56-.7,4.82,4.82,0,0,0-2.52.65,4.28,4.28,0,0,0-1.7,1.82,5.9,5.9,0,0,0-.62,2.77,5.41,5.41,0,0,0,.62,2.61,4.65,4.65,0,0,0,1.75,1.77A5.08,5.08,0,0,0,182,29.27Zm0-8.36a2.12,2.12,0,0,1,1.54.53,2.7,2.7,0,0,1,.7,1.66h-4.79A2.36,2.36,0,0,1,181.93,20.91Zm10.66,8.36a4.66,4.66,0,0,0,2.76-.79,4.22,4.22,0,0,0,1.57-2.29l-2.21-.49a2.37,2.37,0,0,1-.76,1.14,2.44,2.44,0,0,1-3.2-.46,3.76,3.76,0,0,1-.62-2.24,3.89,3.89,0,0,1,.59-2.21,2.32,2.32,0,0,1,3.2-.44,2.33,2.33,0,0,1,.84,1.21l2.16-.59a3.77,3.77,0,0,0-1.49-2.26,4.66,4.66,0,0,0-2.81-.84,4.71,4.71,0,0,0-2.55.67,4.38,4.38,0,0,0-1.65,1.81,5.91,5.91,0,0,0-.59,2.65,6.19,6.19,0,0,0,.57,2.63A4.44,4.44,0,0,0,190,28.6,4.67,4.67,0,0,0,192.59,29.27Zm10.09,0a4.66,4.66,0,0,0,2.76-.79A4.22,4.22,0,0,0,207,26.19l-2.21-.49a2.37,2.37,0,0,1-.76,1.14,2.44,2.44,0,0,1-3.2-.46,3.76,3.76,0,0,1-.62-2.24,3.89,3.89,0,0,1,.59-2.21,2.32,2.32,0,0,1,3.2-.44,2.33,2.33,0,0,1,.84,1.21l2.16-.59a3.77,3.77,0,0,0-1.49-2.26,4.66,4.66,0,0,0-2.81-.84,4.71,4.71,0,0,0-2.55.67,4.38,4.38,0,0,0-1.65,1.81,5.91,5.91,0,0,0-.59,2.65,6.19,6.19,0,0,0,.57,2.63,4.44,4.44,0,0,0,1.63,1.83A4.65,4.65,0,0,0,202.68,29.27Zm6-11.47h2.17v-2h-2.17Zm0,11.2h2.17V19.28h-2.17Zm10.21-11.07.69-2.16h-2.15l-.68,2.16Zm-1.05,11.34a4.93,4.93,0,0,0,2.55-.65,4.54,4.54,0,0,0,1.69-1.81,5.59,5.59,0,0,0,.61-2.67,5.63,5.63,0,0,0-.6-2.65,4.46,4.46,0,0,0-1.7-1.82,5.23,5.23,0,0,0-5.07,0,4.41,4.41,0,0,0-1.7,1.8,5.61,5.61,0,0,0-.61,2.68,5.69,5.69,0,0,0,.59,2.66,4.54,4.54,0,0,0,1.69,1.81A4.84,4.84,0,0,0,217.89,29.27Zm0-2a2.24,2.24,0,0,1-1.9-.84,3.65,3.65,0,0,1-.64-2.26,3.72,3.72,0,0,1,.61-2.23,2.22,2.22,0,0,1,1.93-.87,2.28,2.28,0,0,1,1.92.85,3.66,3.66,0,0,1,.63,2.25,3.68,3.68,0,0,1-.63,2.23A2.23,2.23,0,0,1,217.89,27.24ZM224.7,29h2.2V24a4,4,0,0,1,.33-1.81,1.88,1.88,0,0,1,.87-.89,2.45,2.45,0,0,1,1.08-.26,2,2,0,0,1,1.23.35,1.86,1.86,0,0,1,.67.85,3.34,3.34,0,0,1,.29,1.07,7.57,7.57,0,0,1,.07,1V29h2.2V23.57a9.09,9.09,0,0,0-.06-.91,6.34,6.34,0,0,0-.25-1.19,4.1,4.1,0,0,0-.62-1.19,2.93,2.93,0,0,0-1.12-.92,3.87,3.87,0,0,0-1.77-.36,4.35,4.35,0,0,0-1.86.37,3.65,3.65,0,0,0-1.32,1V19.28H224.7Z" fill="#002ea8"/>
    </g>
  </g>
</svg>
