<svg width="22" height="15" viewBox="0 0 22 15" fill="none" xmlns="http://www.w3.org/2000/svg">
<path d="M19.207 2.57274L11 0L2.79297 2.57274L0 6.76611L2.57812 7.57643V12.0331L11 14.6667L19.4219 12.0331V7.57643L22 6.76611L19.207 2.57274ZM16.7363 3.07919L11 4.86188L5.26367 3.07919L11 1.2965L16.7363 3.07919ZM1.97656 6.09761L3.50195 3.80847L10.0332 5.85451L8.50781 8.14365L1.97656 6.09761ZM3.86719 7.96133L9.04492 9.58195L10.3555 7.61694V13.1878L3.86719 11.1418V7.96133ZM11.6445 13.1878V7.61694L12.9551 9.58195L18.1328 7.96133V11.1418L11.6445 13.1878ZM13.5137 8.14365L11.9883 5.85451L18.5195 3.80847L20.0449 6.09761L13.5137 8.14365Z" fill="#002EA8"/>
</svg>
