<svg width="18" height="18" viewBox="0 0 18 18" fill="none" xmlns="http://www.w3.org/2000/svg">
<path d="M17 18H1C0.447715 18 0 17.5523 0 17V9.7C0 9.41192 0.12432 9.13785 0.341 8.948L2 7.5V1C2 0.447715 2.44772 0 3 0H17C17.5523 0 18 0.447715 18 1V17C18 17.5523 17.5523 18 17 18ZM6 4.329C6.24212 4.32928 6.47592 4.4174 6.658 4.577L11.658 8.952C11.874 9.14074 11.9986 9.41316 12 9.7V16H16V2H4V5.75L5.341 4.576C5.52348 4.41654 5.75766 4.32876 6 4.329ZM5 13H7V16H10V10.157L6 6.657L2 10.157V16H5V13Z" fill="#353B4D"/>
</svg>
