<?xml version="1.0" encoding="utf-8"?>
<!-- Generator: Adobe Illustrator 25.4.1, SVG Export Plug-In . SVG Version: 6.00 Build 0)  -->
<svg version="1.1" id="check" xmlns="http://www.w3.org/2000/svg" xmlns:xlink="http://www.w3.org/1999/xlink" x="0px" y="0px"
	 viewBox="0 0 20 20" style="enable-background:new 0 0 20 20;" xml:space="preserve">
<style type="text/css">
	.st0{fill:#FFFFFF;}
	.st1{fill:#002EA8;}
</style>
<path class="st0" d="M10.1,2C5.7,1.9,2.1,5.4,2,9.8V10c0,4.4,3.6,8,8,8c4.4,0,8-3.6,8-7.9C18,5.7,14.5,2.1,10.1,2z"/>
<path class="st1" d="M10,0C4.5,0,0,4.5,0,10s4.5,10,10,10s10-4.5,10-10S15.5,0,10,0z M10,18c-4.4,0-8-3.6-8-8V9.8
	C2.1,5.4,5.7,1.9,10.1,2c4.4,0.1,7.9,3.7,7.9,8.1C18,14.4,14.4,18,10,18z"/>
<polygon class="st1" points="8.4,11.7 6.3,9.7 5.2,10.8 8.4,14 14.8,7.6 13.7,6.5 "/>
</svg>
