<svg xmlns="http://www.w3.org/2000/svg" width="28" height="28" viewBox="0 0 28 28">
  <g id="a391b695-fde5-43ae-9e96-50191274e701" data-name="Capa 2">
    <g id="aebcf4a7-7edf-481e-b24a-1f611c1e851b" data-name="Capa 1">
      <g>
        <path d="M14,0h0A14,14,0,0,1,28,14h0A14,14,0,0,1,14,28h0A14,14,0,0,1,0,14H0A14,14,0,0,1,14,0Z" fill="#fff"/>
        <path d="M14,26A12,12,0,0,1,2,14v-.24A12,12,0,1,1,14,26ZM8.49,13.51,6.8,15.2,11.6,20l9.6-9.6L19.51,8.7,11.6,16.6Z" fill="#002ea8"/>
      </g>
    </g>
  </g>
</svg>
