<?xml version="1.0" encoding="UTF-8"?>
<!DOCTYPE svg PUBLIC "-//W3C//DTD SVG 1.1//EN" "http://www.w3.org/Graphics/SVG/1.1/DTD/svg11.dtd">
<!-- Creator: CorelDRAW X6 -->
<svg xmlns="http://www.w3.org/2000/svg" xml:space="preserve" width="100%" height="100%" version="1.1" shape-rendering="geometricPrecision" text-rendering="geometricPrecision" image-rendering="optimizeQuality" fill-rule="evenodd" clip-rule="evenodd"
viewBox="0 0 529 529"
 xmlns:xlink="http://www.w3.org/1999/xlink">
 <g id="Capa_x0020_1">
  <metadata id="CorelCorpID_0Corel-Layer"/>
  <path fill="#393185" d="M265 529c-146,0 -265,-118 -265,-265 0,-146 118,-265 265,-265 146,0 265,118 265,265 0,146 -119,264 -265,265zm-212 -260c1,116 96,210 213,209 116,-1 211,-95 211,-212 0,-116 -94,-211 -211,-212 -116,-1 -212,93 -213,209l0 5zm265 128l-79 0 0 -106 -26 0 0 -53 79 0 0 106 26 0 0 53zm-26 -212l-53 0 0 -53 53 0 0 53z"/>
 </g>
</svg>
