<svg xmlns="http://www.w3.org/2000/svg" width="14" height="18" viewBox="0 0 14 18">
  <g id="a0189f05-61ec-4287-8291-77f511dba0a1" data-name="Capa 2">
    <g id="ba2dcf74-0c2c-4970-bd3d-27c6ae4f0613" data-name="Capa 1">
      <g>
        <path d="M4.32.53A7,7,0,0,0,0,7c0,2.72,1.9,5.56,3.5,7.47A29.18,29.18,0,0,0,7,18a29.18,29.18,0,0,0,3.5-3.53C12.1,12.56,14,9.72,14,7A6.94,6.94,0,0,0,12,2.05,7,7,0,0,0,4.32.53ZM9,13.19A28.09,28.09,0,0,1,7,15.3a28.09,28.09,0,0,1-2-2.11c-2.5-3-3-5-3-6.19A5,5,0,0,1,12,7C12,8.17,11.47,10.19,9,13.19Z" fill="blue"/>
        <path d="M7,4a3,3,0,0,0,0,6,3,3,0,0,0,2.12-.88A3,3,0,0,0,7,4Z" fill="blue"/>
      </g>
    </g>
  </g>
</svg>
