<?xml version="1.0" encoding="utf-8"?>
<!-- Generator: Adobe Illustrator 25.4.1, SVG Export Plug-In . SVG Version: 6.00 Build 0)  -->
<svg version="1.1" id="Capa_1" xmlns="http://www.w3.org/2000/svg" xmlns:xlink="http://www.w3.org/1999/xlink" x="0px" y="0px"
	 viewBox="0 0 196 65" style="enable-background:new 0 0 196 65;" xml:space="preserve">
<style type="text/css">
	.st0{clip-path:url(#SVGID_00000159445035831372087540000018013922404339258272_);}
	.st1{clip-path:url(#SVGID_00000060029678245352659220000016822283165291277205_);}
	.st2{fill:#0000CC;}
	.st3{fill:url(#SVGID_00000150817305496984996180000003318593231574630830_);}
	.st4{fill:url(#SVGID_00000150799091648300027570000002108497954996607390_);}
	.st5{fill:#FF8800;}
</style>
<g>
	<defs>
		<rect id="SVGID_1_" width="196" height="65"/>
	</defs>
	<clipPath id="SVGID_00000101076147568870810510000000477330552583836331_">
		<use xlink:href="#SVGID_1_"  style="overflow:visible;"/>
	</clipPath>
	<g style="clip-path:url(#SVGID_00000101076147568870810510000000477330552583836331_);">
		<g>
			<defs>
				<rect id="SVGID_00000008837509278314780580000006167950801419402150_" x="1" width="194.1" height="65"/>
			</defs>
			<clipPath id="SVGID_00000017516827117487976820000012987507508931141283_">
				<use xlink:href="#SVGID_00000008837509278314780580000006167950801419402150_"  style="overflow:visible;"/>
			</clipPath>
			<g style="clip-path:url(#SVGID_00000017516827117487976820000012987507508931141283_);">
				<path class="st2" d="M112.2,47.3c-1.2,0-2.2-0.4-2.8-1.2c-0.7-0.8-0.9-1.8-0.7-3.1l3.4-24.5c0.1-0.8-0.1-1.4-0.6-2
					c-0.5-0.6-1.1-0.8-1.8-0.8c-0.8,0-1.5,0.3-2.2,0.9c-0.7,0.6-1.1,1.3-1.2,1.9L103,43c-0.2,1.3-0.1,2.5,0.2,3.7
					c0.3,1.2,0.9,2.3,1.6,3.2c0.7,0.9,1.6,1.6,2.7,2.2c1.1,0.5,2.2,0.8,3.5,0.8h0.8c0.7-0.2,1.3-0.5,1.9-1c0.6-0.5,0.9-1.1,1-1.7
					c0.1-0.8-0.1-1.4-0.6-2C113.6,47.6,113,47.3,112.2,47.3z"/>
				<path class="st2" d="M138.5,44.1c-0.8,0-1.6,0.3-2.2,0.8h0.1c-0.8,0.7-1.6,1.2-2.6,1.5c-0.9,0.4-2.1,0.6-3.4,0.6
					c-1.1,0-2.2-0.2-3.1-0.7c-0.9-0.5-1.7-1.1-2.4-1.9c-0.6-0.8-1.1-1.7-1.4-2.7c-0.3-1-0.3-2.1-0.2-3.2l1.2-8.5h13.2
					c0.7,0,1.4-0.3,2.1-0.9c0.7-0.6,1-1.3,1.2-2.1c0.1-0.8-0.1-1.5-0.5-2.1c-0.5-0.6-1.1-0.9-1.9-0.9h-13.2l0.7-5.2
					c0-0.9-0.2-1.6-0.6-2.2c-0.5-0.6-1.1-0.9-2-0.9c-0.9,0-1.6,0.3-2.3,1c-0.6,0.7-1,1.4-1.1,2.2l-2.8,19.7
					c-0.3,2.2-0.1,4.1,0.4,5.9c0.6,1.8,1.4,3.3,2.5,4.5c1.1,1.3,2.6,2.2,4.2,2.9c1.7,0.7,3.5,1,5.5,1c1.9,0,3.6-0.3,5.3-1
					c1.7-0.7,3.3-1.7,4.8-3h-0.1c0.3-0.2,0.5-0.5,0.7-0.8c0.1-0.3,0.2-0.6,0.3-1c0.1-0.9-0.1-1.5-0.5-2
					C139.9,44.4,139.3,44.1,138.5,44.1z"/>
				<path class="st2" d="M97.4,29.4c-0.9-1.3-2.1-2.3-3.5-3.1c-1.4-0.8-2.9-1.3-4.6-1.5c-0.3,0-0.6-0.1-0.8-0.1c-0.2,0-0.5,0-0.8,0
					c-2.9,0-5.5,0.8-8,2.3c-2.5,1.6-4.4,3.6-5.9,6.1c-0.5,0.9-0.9,1.8-1.3,2.7c-0.3,0.9-0.6,1.9-0.7,2.9c-0.1,1-0.2,2-0.1,2.9
					c0.1,1,0.2,1.9,0.5,2.7c0.8,2.5,2.2,4.5,4.2,6.1c2,1.6,4.5,2.4,7.3,2.4c1.1,0,2.2-0.1,3.1-0.3c0.5-0.2,1-0.3,1.5-0.5
					c0.5-0.2,0.9-0.3,1.4-0.5c0.2-0.1,0.6-0.3,1.2-0.6s0.9-0.4,1.1-0.5c0,0.5,0,1,0.3,1.3c0.2,0.3,0.4,0.6,0.7,0.7
					c0.3,0.2,0.6,0.3,0.9,0.3c0.3,0,0.6,0.1,0.9,0.1c0.7,0,1.4-0.3,2.1-0.8c0.7-0.6,1-1.2,1.1-2l1.6-11.2c0.2-1.8,0.2-3.5-0.2-5.1
					C98.9,32.1,98.2,30.7,97.4,29.4z M92.8,42.1c-0.6,1-1.3,1.9-2.1,2.6c-0.9,0.8-1.8,1.3-2.9,1.8c-1.1,0.4-2.2,0.6-3.3,0.6
					c-1,0-2-0.2-2.9-0.7c-0.9-0.4-1.7-1-2.4-1.8C78.5,43.9,78,43,77.7,42c-0.3-1-0.4-2.1-0.2-3.3c0.2-1.1,0.5-2.2,1.1-3.2
					c0.6-1,1.3-1.9,2.2-2.7c0.9-0.8,1.8-1.4,2.9-1.8c1-0.4,2.1-0.7,3.2-0.7s2.1,0.2,3.1,0.7c0.9,0.5,1.7,1.1,2.4,1.8
					c0.7,0.8,1.1,1.6,1.4,2.7c0.3,1,0.4,2.1,0.2,3.2C93.7,40,93.4,41.1,92.8,42.1z"/>
				<path class="st2" d="M170.4,29c-1.1-1.3-2.4-2.3-4-3.1c-1.6-0.8-3.3-1.2-5.1-1.2c-1.9,0-3.8,0.4-5.6,1.2
					c-1.8,0.8-3.4,1.8-4.9,3.1c-1.5,1.3-2.7,2.8-3.7,4.5c-1,1.7-1.6,3.5-1.9,5.4c-0.3,1.9-0.2,3.8,0.3,5.5c0.5,1.7,1.3,3.3,2.4,4.6
					s2.4,2.4,4,3.1c1.6,0.8,3.3,1.1,5.2,1c1.4,0,2.8-0.2,4.1-0.6c1.3-0.3,2.5-0.9,3.6-1.7l-0.1,0.1c0.3-0.3,0.6-0.6,0.7-0.9
					c0.1-0.3,0.2-0.7,0.3-1c0.1-0.7-0.1-1.3-0.5-1.9c-0.4-0.6-1.1-0.9-1.9-1c-0.6,0-1.2,0.2-1.7,0.5c-0.4,0.2-1,0.3-1.6,0.5
					c-0.6,0.2-1.3,0.3-2.1,0.3c-1.5,0-2.9-0.4-4.2-1.3c-1.4-0.9-2.4-2.3-3.3-4.3h19.2c0.9,0,1.6-0.2,2.3-0.8c0.7-0.6,1-1.3,1.1-2.1
					c0.3-1.9,0.1-3.7-0.4-5.4C172.3,31.8,171.5,30.3,170.4,29z M151.4,35.9c0-0.1,0.1-0.2,0.1-0.2c1-1.5,2.3-2.7,3.9-3.7
					c1.6-1,3.3-1.5,5.1-1.5c1.7,0,3.2,0.5,4.5,1.5c1.3,1,2.3,2.3,3,3.8v0.1c0,0,0,0.1,0,0.1L151.4,35.9L151.4,35.9z"/>
				<path class="st2" d="M194.3,25.7c-0.5-0.6-1-0.9-1.8-0.9c-1.9,0.1-3.7,0.5-5.5,1.2c-1.8,0.7-3.4,1.7-4.8,2.9
					c-1.4,1.2-2.6,2.6-3.6,4.3c-1,1.6-1.6,3.4-1.9,5.3l-1.6,11.7c0,0.8,0.2,1.4,0.7,2c0.4,0.5,1,0.8,1.7,0.8c0.8,0,1.4-0.3,2-0.8
					c0.6-0.5,1-1.1,1.2-1.7l1.6-11.5c0.2-1.2,0.5-2.3,1.1-3.3c0.6-1,1.3-1.9,2.1-2.6c0.9-0.8,1.8-1.3,2.9-1.8
					c1.1-0.4,2.1-0.6,3.2-0.6c0.8,0,1.5-0.3,2.1-0.9c0.6-0.6,1-1.2,1.2-1.9C195,27,194.8,26.3,194.3,25.7z"/>
				
					<linearGradient id="SVGID_00000029749334197261501140000007310230058508180104_" gradientUnits="userSpaceOnUse" x1="41.3824" y1="12.4884" x2="40.1434" y2="69.7102" gradientTransform="matrix(1 0 0 -1 0 66)">
					<stop  offset="0" style="stop-color:#FF6C00"/>
					<stop  offset="1" style="stop-color:#FF8800"/>
				</linearGradient>
				<path style="fill:url(#SVGID_00000029749334197261501140000007310230058508180104_);" d="M40.5,0c-5.7,0-10.4,4.7-10.4,10.5
					c0,1.4,0.7,3.4,1.6,5.5c0,0.1,0,0.1,0.1,0.2c1.9,4.1,5.1,8.9,7.1,11.7c0.4,0.5,0.7,1,1,1.3c0.2,0.3,0.4,0.6,0.6,0.8
					c0.1-0.1,0.1-0.2,0.2-0.3c1.6-2.2,6-8.4,8.5-13.6c1-2.2,1.7-4.2,1.7-5.7C50.8,4.7,46.2,0,40.5,0z M40.5,14.3
					c-1.9,0-3.4-1.3-3.8-3.1c-0.1-0.3-0.1-0.6-0.1-1c0-2.1,1.7-3.9,3.8-3.9c1.9,0,3.4,1.3,3.8,3.1c0.1,0.3,0.1,0.6,0.1,1
					C44.3,12.6,42.6,14.3,40.5,14.3z"/>
				
					<linearGradient id="SVGID_00000165233015768902508130000001110321240113268150_" gradientUnits="userSpaceOnUse" x1="71.7519" y1="15.2661" x2="70.513" y2="72.4878" gradientTransform="matrix(1 0 0 -1 0 66)">
					<stop  offset="0" style="stop-color:#FF6C00"/>
					<stop  offset="1" style="stop-color:#FF8800"/>
				</linearGradient>
				<path style="fill:url(#SVGID_00000165233015768902508130000001110321240113268150_);" d="M79.3,14.3L68.8,8.2l-6.1,10.6
					l10.5,6.1L79.3,14.3z"/>
				<path class="st2" d="M11.1,41.9C10,41.9,9,42.4,9,43.5s1,1.7,2.1,1.7h7.7L17,41.9H11.1z"/>
				<path class="st2" d="M1,33.2c0,1.1,1,1.7,2.1,1.7h10l-1.9-3.3H3.1C1.9,31.6,1,32.1,1,33.2z"/>
				<path class="st2" d="M5.3,38.4c0,1.1,1,1.7,2.1,1.7H16l-1.9-3.3H7.3C6.2,36.7,5.3,37.2,5.3,38.4z"/>
				<path class="st2" d="M54,34.1l-6.1-10.9c-2.1,4.5-5.9,9.9-7.3,11.8l8.4,14.8c1.1,2,3.1,3.1,5.1,3.1c2,0,4-1.1,5.1-3.1L72,27
					l-10.5-6.1L54,34.1z"/>
				<path class="st2" d="M39,33.3c-1.8-2.5-4.5-6.6-6.2-10.2c0,0,0-0.1-0.1-0.1l-6,11.6L18,19.3c-1.7-3.1-5.5-4-8.2-2.1
					c-2.8,1.9-3.7,6-1.9,9.1l1.6,2.9L9.9,30l11.2,19.7v0l0.1,0.2l0.7,1.3c1.4,2,3.8,2.8,5.9,2.3c1.8-0.3,3.4-1.4,4.3-3.2L40.2,35
					c-0.1-0.1-0.2-0.3-0.4-0.5C39.6,34.2,39.3,33.8,39,33.3z"/>
				<path class="st5" d="M75.2,65c-0.5,0-1-0.1-1.3-0.2c-0.4-0.1-0.7-0.3-1-0.5s-0.4-0.5-0.6-0.8c-0.1-0.3-0.2-0.6-0.2-1h0.9
					c0,0.3,0.1,0.5,0.2,0.7c0.1,0.2,0.3,0.4,0.5,0.5c0.2,0.1,0.4,0.2,0.7,0.3c0.2,0.1,0.5,0.1,0.8,0.1c0.3,0,0.5,0,0.7-0.1
					c0.2-0.1,0.4-0.1,0.6-0.2c0.2-0.1,0.3-0.2,0.4-0.4c0.1-0.2,0.1-0.3,0.1-0.5c0-0.2,0-0.4-0.1-0.5c-0.1-0.1-0.2-0.3-0.4-0.4
					c-0.2-0.1-0.4-0.2-0.7-0.3c-0.3-0.1-0.6-0.2-1.1-0.3c-0.4-0.1-0.8-0.2-1.1-0.3c-0.3-0.1-0.5-0.3-0.7-0.4
					c-0.2-0.2-0.3-0.3-0.4-0.6c-0.1-0.2-0.1-0.4-0.1-0.7c0-0.3,0.1-0.6,0.2-0.8c0.1-0.2,0.3-0.5,0.5-0.6c0.2-0.2,0.5-0.3,0.8-0.4
					c0.3-0.1,0.7-0.2,1.1-0.2c0.4,0,0.8,0,1.1,0.1c0.3,0.1,0.6,0.2,0.9,0.4c0.2,0.2,0.4,0.4,0.6,0.7c0.1,0.3,0.2,0.6,0.2,0.9h-0.9
					c-0.1-0.9-0.7-1.3-1.8-1.3c-0.5,0-1,0.1-1.2,0.3c-0.3,0.2-0.4,0.5-0.4,0.8c0,0.1,0,0.3,0.1,0.4c0.1,0.1,0.1,0.2,0.3,0.3
					c0.1,0.1,0.3,0.2,0.5,0.2c0.2,0.1,0.5,0.1,0.8,0.2c0.2,0,0.4,0.1,0.7,0.1c0.2,0.1,0.5,0.1,0.7,0.2c0.2,0.1,0.4,0.2,0.6,0.3
					c0.2,0.1,0.4,0.2,0.5,0.4c0.1,0.1,0.3,0.3,0.3,0.5c0.1,0.2,0.1,0.4,0.1,0.7c0,0.3-0.1,0.6-0.2,0.9c-0.1,0.3-0.3,0.5-0.6,0.7
					c-0.2,0.2-0.5,0.3-0.8,0.4C76,65,75.6,65,75.2,65z"/>
				<path class="st5" d="M87.2,57.5c0.5,0,1,0.1,1.4,0.3s0.8,0.4,1.1,0.8s0.5,0.7,0.7,1.2c0.2,0.5,0.3,1,0.3,1.5s-0.1,1.1-0.3,1.5
					c-0.2,0.5-0.4,0.9-0.7,1.2c-0.3,0.3-0.7,0.6-1.1,0.8c-0.4,0.2-0.9,0.3-1.4,0.3c-0.5,0-1-0.1-1.4-0.3c-0.4-0.2-0.8-0.4-1.1-0.8
					c-0.3-0.3-0.5-0.7-0.7-1.2c-0.2-0.5-0.3-1-0.3-1.5s0.1-1.1,0.3-1.5c0.2-0.5,0.4-0.9,0.7-1.2c0.3-0.3,0.7-0.6,1.1-0.8
					C86.3,57.6,86.7,57.5,87.2,57.5z M87.2,64.2c0.4,0,0.7-0.1,1-0.2c0.3-0.1,0.6-0.3,0.8-0.6c0.2-0.3,0.4-0.6,0.5-0.9
					c0.1-0.4,0.2-0.8,0.2-1.2c0-0.5-0.1-0.9-0.2-1.2c-0.1-0.4-0.3-0.7-0.5-0.9c-0.2-0.2-0.5-0.4-0.8-0.6c-0.3-0.1-0.6-0.2-1-0.2
					c-0.4,0-0.7,0.1-1,0.2c-0.3,0.1-0.6,0.3-0.8,0.6c-0.2,0.3-0.4,0.6-0.5,0.9c-0.1,0.4-0.2,0.8-0.2,1.2c0,0.5,0.1,0.9,0.2,1.2
					c0.1,0.4,0.3,0.7,0.5,0.9c0.2,0.3,0.5,0.4,0.8,0.6C86.5,64.1,86.9,64.2,87.2,64.2z"/>
				<path class="st5" d="M101.3,64.9h-4.5v-7.2h1V64h3.5V64.9z"/>
				<path class="st5" d="M110.2,65c-0.4,0-0.8,0-1.1-0.1c-0.3-0.1-0.6-0.2-0.8-0.4c-0.2-0.2-0.4-0.3-0.5-0.5
					c-0.1-0.2-0.2-0.4-0.3-0.7c-0.1-0.2-0.1-0.5-0.1-0.7c0-0.3,0-0.5,0-0.7v-4.2h1v4.2c0,0.5,0,0.9,0.1,1.2c0.1,0.3,0.2,0.5,0.4,0.7
					c0.2,0.2,0.4,0.3,0.6,0.3c0.2,0.1,0.5,0.1,0.8,0.1c0.3,0,0.6,0,0.8-0.1c0.2-0.1,0.4-0.2,0.6-0.4c0.2-0.2,0.3-0.4,0.4-0.7
					c0.1-0.3,0.1-0.7,0.1-1.2v-4.2h1v4.2c0,0.5,0,0.9-0.1,1.3c-0.1,0.4-0.2,0.7-0.5,1c-0.2,0.3-0.5,0.5-0.9,0.6
					C111.2,65,110.7,65,110.2,65z"/>
				<path class="st5" d="M125.5,59.8h-1c0-0.2-0.1-0.4-0.2-0.6s-0.2-0.3-0.4-0.5c-0.2-0.1-0.4-0.2-0.6-0.3c-0.2-0.1-0.5-0.1-0.7-0.1
					c-0.4,0-0.7,0.1-1,0.2c-0.3,0.1-0.5,0.3-0.8,0.6c-0.2,0.2-0.4,0.6-0.5,0.9c-0.1,0.4-0.2,0.8-0.2,1.3c0,0.5,0.1,0.9,0.2,1.2
					c0.1,0.4,0.3,0.7,0.5,0.9c0.2,0.2,0.5,0.4,0.7,0.6c0.3,0.1,0.6,0.2,1,0.2c0.3,0,0.5,0,0.8-0.1c0.2-0.1,0.4-0.2,0.6-0.3
					s0.3-0.3,0.4-0.5c0.1-0.2,0.2-0.4,0.2-0.7h1c0,0.4-0.1,0.7-0.3,1c-0.2,0.3-0.4,0.6-0.6,0.8c-0.3,0.2-0.6,0.4-0.9,0.5
					c-0.3,0.1-0.7,0.2-1.1,0.2c-0.5,0-1-0.1-1.4-0.3c-0.4-0.2-0.8-0.4-1.1-0.8c-0.3-0.3-0.5-0.7-0.7-1.2c-0.2-0.5-0.2-1-0.2-1.6
					c0-0.6,0.1-1.1,0.2-1.6c0.2-0.5,0.4-0.9,0.7-1.2c0.3-0.3,0.6-0.6,1.1-0.8c0.4-0.2,0.9-0.3,1.4-0.3c0.4,0,0.7,0.1,1.1,0.2
					c0.4,0.1,0.6,0.3,0.9,0.5s0.5,0.4,0.6,0.7C125.3,59.2,125.4,59.5,125.5,59.8z"/>
				<path class="st5" d="M132.7,64.9h-1v-7.2h1V64.9z"/>
				<path class="st5" d="M142.5,57.5c0.5,0,1,0.1,1.4,0.3c0.4,0.2,0.8,0.4,1.1,0.8c0.3,0.3,0.5,0.7,0.7,1.2c0.2,0.5,0.3,1,0.3,1.5
					s-0.1,1.1-0.3,1.5c-0.2,0.5-0.4,0.9-0.7,1.2c-0.3,0.3-0.7,0.6-1.1,0.8c-0.4,0.2-0.9,0.3-1.4,0.3c-0.5,0-1-0.1-1.4-0.3
					c-0.4-0.2-0.8-0.4-1.1-0.8c-0.3-0.3-0.5-0.7-0.7-1.2c-0.2-0.5-0.3-1-0.3-1.5s0.1-1.1,0.3-1.5c0.2-0.5,0.4-0.9,0.7-1.2
					c0.3-0.3,0.7-0.6,1.1-0.8C141.5,57.6,142,57.5,142.5,57.5z M142.5,64.2c0.4,0,0.7-0.1,1-0.2c0.3-0.1,0.6-0.3,0.8-0.6
					c0.2-0.3,0.4-0.6,0.5-0.9c0.1-0.4,0.2-0.8,0.2-1.2c0-0.5-0.1-0.9-0.2-1.2s-0.3-0.7-0.5-0.9c-0.2-0.2-0.5-0.4-0.8-0.6
					s-0.6-0.2-1-0.2c-0.4,0-0.7,0.1-1,0.2s-0.6,0.3-0.8,0.6c-0.2,0.3-0.4,0.6-0.5,0.9s-0.2,0.8-0.2,1.2c0,0.5,0.1,0.9,0.2,1.2
					c0.1,0.4,0.3,0.7,0.5,0.9c0.2,0.3,0.5,0.4,0.8,0.6C141.8,64.1,142.1,64.2,142.5,64.2z"/>
				<path class="st5" d="M157.7,64.9h-1l-3.8-5.7v5.7h-0.9v-7.2h1l3.8,5.7v-5.7h0.9V64.9z"/>
				<path class="st5" d="M169.6,64.9h-5.4v-7.2h5.2v0.9h-4.3v2.2h4v0.9h-4v2.5h4.5V64.9z"/>
				<path class="st5" d="M178.6,65c-0.5,0-1-0.1-1.3-0.2c-0.4-0.1-0.7-0.3-1-0.5c-0.3-0.2-0.4-0.5-0.6-0.8c-0.1-0.3-0.2-0.6-0.2-1
					h0.9c0,0.3,0.1,0.5,0.2,0.7c0.1,0.2,0.3,0.4,0.5,0.5c0.2,0.1,0.4,0.2,0.7,0.3c0.2,0.1,0.5,0.1,0.8,0.1c0.3,0,0.5,0,0.7-0.1
					c0.2-0.1,0.4-0.1,0.6-0.2c0.2-0.1,0.3-0.2,0.4-0.4c0.1-0.2,0.1-0.3,0.1-0.5c0-0.2,0-0.4-0.1-0.5c-0.1-0.1-0.2-0.3-0.4-0.4
					c-0.2-0.1-0.4-0.2-0.7-0.3c-0.3-0.1-0.6-0.2-1.1-0.3c-0.4-0.1-0.8-0.2-1.1-0.3c-0.3-0.1-0.5-0.3-0.7-0.4
					c-0.2-0.2-0.3-0.3-0.4-0.6c-0.1-0.2-0.1-0.4-0.1-0.7c0-0.3,0.1-0.6,0.2-0.8c0.1-0.2,0.3-0.5,0.5-0.6c0.2-0.2,0.5-0.3,0.8-0.4
					c0.3-0.1,0.7-0.2,1.1-0.2s0.8,0,1.1,0.1c0.3,0.1,0.6,0.2,0.9,0.4c0.2,0.2,0.4,0.4,0.6,0.7c0.1,0.3,0.2,0.6,0.2,0.9h-0.9
					c-0.1-0.9-0.7-1.3-1.8-1.3c-0.5,0-1,0.1-1.2,0.3c-0.3,0.2-0.4,0.5-0.4,0.8c0,0.1,0,0.3,0.1,0.4c0.1,0.1,0.1,0.2,0.3,0.3
					c0.1,0.1,0.3,0.2,0.5,0.2c0.2,0.1,0.5,0.1,0.8,0.2c0.2,0,0.4,0.1,0.7,0.1c0.2,0.1,0.5,0.1,0.7,0.2c0.2,0.1,0.4,0.2,0.6,0.3
					c0.2,0.1,0.4,0.2,0.5,0.4c0.1,0.1,0.3,0.3,0.3,0.5c0.1,0.2,0.1,0.4,0.1,0.7c0,0.3-0.1,0.6-0.2,0.9c-0.1,0.3-0.3,0.5-0.6,0.7
					c-0.2,0.2-0.5,0.3-0.8,0.4C179.3,65,179,65,178.6,65z"/>
			</g>
		</g>
	</g>
</g>
</svg>
