<svg width="239" height="80" viewBox="0 0 239 80" fill="none" xmlns="http://www.w3.org/2000/svg">
<g clip-path="url(#clip0)">
<path d="M137.084 58.2504C135.571 58.2504 134.427 57.7589 133.65 56.7348C132.832 55.7517 132.546 54.4819 132.791 52.9253L137.003 22.8178C137.125 21.8756 136.88 21.0564 136.267 20.36C135.653 19.6636 134.917 19.3359 134.059 19.3359C133.118 19.3359 132.219 19.7046 131.401 20.4829C130.583 21.2612 130.092 22.0395 129.97 22.8587L125.717 52.9662C125.513 54.5228 125.594 56.0794 126.003 57.5541C126.412 59.0287 127.066 60.3395 127.966 61.4455C128.866 62.5515 129.97 63.4527 131.278 64.1081C132.587 64.7635 134.018 65.0912 135.571 65.0912H136.553C137.371 64.8454 138.147 64.4358 138.843 63.8213C139.538 63.2069 139.947 62.4696 140.11 61.6913C140.192 60.7491 139.947 59.9299 139.374 59.2745C138.802 58.6191 138.025 58.2504 137.084 58.2504Z" fill="#0000FF"/>
<path d="M169.346 54.2751C168.324 54.2751 167.383 54.6027 166.607 55.2582H166.688C165.748 56.0774 164.685 56.6918 163.499 57.1424C162.354 57.593 160.964 57.8388 159.369 57.8388C157.979 57.8388 156.67 57.5521 155.525 56.9786C154.381 56.4051 153.399 55.6268 152.622 54.6847C151.845 53.7425 151.273 52.6365 150.946 51.3667C150.619 50.0969 150.537 48.7861 150.741 47.3933L152.213 36.9479H168.447C169.346 36.9479 170.205 36.5792 170.982 35.8009C171.799 35.0226 172.249 34.1624 172.413 33.2203C172.536 32.2781 172.331 31.4179 171.799 30.6806C171.227 29.9433 170.491 29.5746 169.51 29.5746H153.277L154.176 23.1435C154.217 22.0375 153.972 21.1363 153.399 20.399C152.827 19.6616 152.009 19.293 150.987 19.293C149.924 19.293 148.983 19.7026 148.165 20.5218C147.388 21.3411 146.898 22.2013 146.775 23.1844L143.381 47.4343C143.054 50.0969 143.218 52.5137 143.913 54.6847C144.608 56.8557 145.63 58.699 147.02 60.2556C148.411 61.8122 150.169 63.0001 152.213 63.8193C154.258 64.6386 156.507 65.0892 158.96 65.0892C161.25 65.0892 163.417 64.6796 165.503 63.8193C167.547 62.9591 169.551 61.7302 171.391 60.0917H171.309C171.677 59.805 171.963 59.4773 172.127 59.0677C172.29 58.6581 172.413 58.2894 172.454 57.8798C172.617 56.8147 172.372 55.9955 171.799 55.381C171.145 54.6027 170.327 54.2751 169.346 54.2751Z" fill="#0000FF"/>
<path d="M118.766 36.2113C117.662 34.6548 116.231 33.3849 114.513 32.4018C112.796 31.4187 110.915 30.7633 108.83 30.5585C108.462 30.5175 108.135 30.4766 107.848 30.4766C107.562 30.4766 107.235 30.4766 106.867 30.4766C103.351 30.4766 100.079 31.4187 97.0536 33.3439C94.0278 35.2692 91.6153 37.7679 89.8161 40.8401C89.2028 41.9461 88.6712 43.0521 88.2623 44.199C87.8534 45.346 87.5672 46.5339 87.3628 47.7628C87.1992 48.9917 87.1583 50.2206 87.2401 51.3675C87.3219 52.5554 87.5263 53.6614 87.8534 54.6855C88.7939 57.7167 90.5113 60.2154 93.0055 62.1407C95.4998 64.0659 98.4847 65.049 102.001 65.049C103.351 65.049 104.659 64.9261 105.845 64.6804C106.499 64.4755 107.112 64.3117 107.685 64.1069C108.257 63.9021 108.83 63.6973 109.402 63.4515C109.688 63.3286 110.179 63.0828 110.833 62.7551C111.488 62.4274 111.937 62.2226 112.183 62.0997C112.142 62.7551 112.224 63.2876 112.51 63.6563C112.755 64.025 113.041 64.3527 113.409 64.5575C113.736 64.7623 114.104 64.8852 114.513 64.9671C114.922 65.0081 115.249 65.049 115.576 65.049C116.476 65.049 117.294 64.7213 118.112 64.025C118.929 63.3286 119.379 62.5093 119.502 61.5672L121.424 47.7628C121.71 45.5508 121.628 43.5027 121.137 41.4955C120.688 39.5293 119.87 37.7679 118.766 36.2113ZM113.123 51.8181C112.428 53.047 111.528 54.153 110.506 55.0541C109.443 55.9963 108.298 56.6926 106.949 57.2252C105.64 57.7577 104.291 58.0035 102.942 58.0035C101.674 58.0035 100.488 57.7167 99.3843 57.1842C98.2803 56.6517 97.2989 55.9144 96.4402 54.9722C95.6224 54.0301 95.0091 52.965 94.6002 51.7362C94.1913 50.5073 94.1095 49.1555 94.314 47.7218C94.5184 46.3291 94.9682 45.0183 95.6633 43.7894C96.3585 42.5605 97.258 41.4545 98.3211 40.5124C99.3843 39.5703 100.57 38.792 101.838 38.2595C103.105 37.7269 104.414 37.4402 105.763 37.4402C107.112 37.4402 108.38 37.7269 109.525 38.3004C110.67 38.8739 111.651 39.6112 112.428 40.5534C113.246 41.4955 113.818 42.5605 114.186 43.8304C114.554 45.1002 114.636 46.411 114.432 47.7218C114.309 49.2374 113.859 50.5892 113.123 51.8181Z" fill="#0000FF"/>
<path d="M208.6 35.6376C207.251 34.0401 205.615 32.7703 203.653 31.7872C201.69 30.8041 199.605 30.3125 197.356 30.3125C195.025 30.3125 192.735 30.8041 190.527 31.7872C188.319 32.7703 186.315 34.0401 184.516 35.6376C182.717 37.2352 181.204 39.0785 179.978 41.2086C178.751 43.3386 178.015 45.5506 177.688 47.8035C177.361 50.1794 177.483 52.4323 178.097 54.6033C178.71 56.7334 179.691 58.6177 181.041 60.2562C182.39 61.8947 184.026 63.1645 185.988 64.0657C187.951 65.0078 190.077 65.4175 192.367 65.3355C194.125 65.2946 195.761 65.0488 197.396 64.6392C198.991 64.2295 200.504 63.4922 201.853 62.5091L201.772 62.673C202.181 62.3453 202.508 61.9766 202.671 61.526C202.835 61.1164 202.957 60.7068 202.998 60.2971C203.121 59.4369 202.917 58.6586 202.385 57.9213C201.853 57.184 201.077 56.7743 200.054 56.6515C199.318 56.6515 198.582 56.8563 197.928 57.3069C197.396 57.5117 196.742 57.7165 196.006 57.9623C195.27 58.208 194.412 58.3309 193.43 58.3309C191.631 58.3309 189.914 57.7984 188.278 56.7744C186.602 55.7093 185.293 53.9479 184.271 51.4902H207.905C208.968 51.5311 209.909 51.2034 210.726 50.4661C211.544 49.7288 211.994 48.8686 212.117 47.9264C212.444 45.6325 212.28 43.4205 211.585 41.3314C210.972 39.0785 209.95 37.2352 208.6 35.6376ZM185.211 44.1988C185.211 44.1169 185.293 43.994 185.375 43.9121C186.602 42.1097 188.196 40.5941 190.118 39.3243C192.04 38.0954 194.125 37.481 196.333 37.481C198.46 37.481 200.3 38.0954 201.894 39.3243C203.489 40.5532 204.716 42.1097 205.574 43.994V44.1579C205.574 44.1988 205.574 44.2398 205.615 44.2398H185.211V44.1988Z" fill="#0000FF"/>
<path d="M238.081 31.6626C237.509 30.9662 236.814 30.5566 235.914 30.5156C233.583 30.5976 231.375 31.0891 229.208 31.9903C227.041 32.8915 225.078 34.0794 223.32 35.554C221.562 37.0696 220.09 38.7901 218.904 40.7972C217.718 42.8044 216.941 44.9754 216.573 47.3103L214.57 61.6882C214.57 62.6303 214.856 63.4496 215.388 64.105C215.919 64.7604 216.655 65.0881 217.514 65.0881C218.454 65.0881 219.272 64.7604 220.008 64.146C220.744 63.5315 221.235 62.7942 221.48 62.0159L223.484 47.8019C223.688 46.3272 224.138 44.9754 224.874 43.7466C225.569 42.5177 226.469 41.4117 227.491 40.5105C228.554 39.5684 229.699 38.872 231.007 38.3395C232.316 37.807 233.624 37.5612 234.974 37.5612C235.914 37.5202 236.773 37.1516 237.509 36.4552C238.245 35.7588 238.736 34.9806 238.981 34.0794C238.94 33.1782 238.654 32.3999 238.081 31.6626Z" fill="#0000FF"/>
<path d="M48.7634 0C41.7304 0 36.0059 5.77573 36.0059 12.9032C36.0059 14.6646 36.8236 17.0814 38.0094 19.703C38.0503 19.7849 38.0503 19.8259 38.0912 19.9078C40.4628 24.9872 44.3473 30.8039 46.8825 34.3267C47.3322 34.9411 47.7411 35.5146 48.0682 35.9652C48.3545 36.3338 48.5589 36.6615 48.7634 36.9073C48.8452 36.8254 48.9269 36.7025 49.0087 36.5796C51.0123 33.8761 56.4097 26.298 59.4355 19.8669C60.7031 17.2043 61.5209 14.7465 61.5209 12.9032C61.5209 5.77573 55.8372 0 48.7634 0ZM48.7634 17.6549C46.4736 17.6549 44.5926 16.0164 44.1429 13.8044C44.0611 13.4357 43.9793 13.0261 43.9793 12.6165C43.9793 9.99488 46.0647 7.86482 48.6816 7.86482C50.9714 7.86482 52.8523 9.50333 53.3021 11.7153C53.3839 12.084 53.4657 12.4936 53.4657 12.9032C53.4657 15.5248 51.3803 17.6549 48.7634 17.6549Z" fill="#0000FF"/>
<path d="M96.6038 17.6133L83.6009 10.1172L76.1182 23.1023L89.0801 30.5985L96.6038 17.6133Z" fill="#0000FF"/>
<path d="M12.6986 51.5312C11.2675 51.5312 10.1226 52.1867 10.1226 53.5794C10.1226 54.9721 11.3084 55.6275 12.6986 55.6275H22.2258L19.936 51.5312H12.6986Z" fill="#0000FF"/>
<path d="M0.186523 40.8802C0.186523 42.2729 1.37232 42.9283 2.76256 42.9283H15.0703L12.7805 38.832H2.76256C1.37232 38.832 0.186523 39.4874 0.186523 40.8802Z" fill="#0000FF"/>
<path d="M5.46143 47.2278C5.46143 48.6206 6.64722 49.276 8.03746 49.276H18.6687L16.3789 45.1797H8.03746C6.60633 45.1797 5.46143 45.8351 5.46143 47.2278Z" fill="#0000FF"/>
<path d="M65.4053 41.9886L57.8408 28.5529C55.2238 34.1238 50.5216 40.6778 48.8042 43.0536L59.1083 61.282C60.4986 63.7807 62.952 65.0915 65.4053 65.0506C67.8587 65.0915 70.3121 63.7398 71.7023 61.282L87.5674 33.1817L74.6054 25.6445L65.4053 41.9886Z" fill="#0000FF"/>
<path d="M46.964 41.0432C44.7969 37.971 41.444 32.9326 39.3586 28.5086C39.3177 28.4677 39.3177 28.3858 39.2768 28.3448L31.8349 42.6407L21.1219 23.716C18.9956 19.9065 14.416 18.7595 10.9813 21.1354C7.5466 23.5112 6.48347 28.5496 8.65061 32.3591L10.6542 35.9229L11.2266 36.906L25.0064 61.1559V61.1149L25.1291 61.3607L26.0286 62.9582C27.7869 65.375 30.6491 66.44 33.307 65.7846C35.4741 65.4569 37.4777 64.0642 38.6226 61.8522L48.3952 43.0913C48.2725 42.9275 48.1089 42.6817 47.9454 42.4359C47.7001 42.0673 47.3321 41.5757 46.964 41.0432Z" fill="#0000FF"/>
<path d="M91.5337 79.9978C90.9203 79.9978 90.3479 79.9159 89.8981 79.793C89.4483 79.6701 89.0394 79.4243 88.7123 79.1786C88.3852 78.9328 88.1807 78.6051 88.0172 78.2364C87.8536 77.8678 87.7718 77.4581 87.731 77.0076H88.8759C88.9167 77.3353 88.9985 77.622 89.1621 77.8678C89.3256 78.1135 89.4892 78.3184 89.7345 78.4822C89.9799 78.6461 90.2252 78.7689 90.5523 78.8509C90.8386 78.9328 91.1657 78.9738 91.5337 78.9738C91.8608 78.9738 92.147 78.9328 92.4332 78.8509C92.7195 78.7689 92.9239 78.687 93.1284 78.5641C93.3328 78.4412 93.4555 78.2774 93.5781 78.0726C93.7008 77.8678 93.7417 77.663 93.7417 77.4581C93.7417 77.2124 93.7008 77.0076 93.5781 76.8437C93.4964 76.6799 93.3328 76.516 93.0875 76.3931C92.883 76.2702 92.5968 76.1473 92.2288 76.0654C91.8608 75.9835 91.4519 75.8606 90.9203 75.7377C90.4297 75.6148 89.9799 75.4919 89.6119 75.3691C89.2439 75.2052 88.9576 75.0414 88.7123 74.8365C88.467 74.6317 88.3034 74.4269 88.1807 74.1402C88.0581 73.8944 88.0172 73.6077 88.0172 73.28C88.0172 72.9113 88.099 72.5836 88.2625 72.2969C88.4261 72.0101 88.6305 71.7234 88.9167 71.5186C89.203 71.3138 89.5301 71.109 89.8981 70.9861C90.307 70.8632 90.7159 70.7812 91.2066 70.7812C91.6972 70.7812 92.147 70.8222 92.5559 70.9451C92.9648 71.068 93.3328 71.2318 93.619 71.4776C93.9053 71.7234 94.1506 71.9692 94.3142 72.3378C94.4777 72.7065 94.5595 73.0342 94.6004 73.4438H93.4555C93.3328 72.3788 92.5968 71.8463 91.2474 71.8463C90.5932 71.8463 90.0617 71.9692 89.7345 72.2149C89.3665 72.4607 89.203 72.7884 89.203 73.198C89.203 73.3619 89.2439 73.5257 89.2848 73.6896C89.3665 73.8125 89.4483 73.9354 89.6119 74.0583C89.7754 74.1811 89.9799 74.2631 90.2252 74.345C90.4705 74.4269 90.7977 74.5088 91.2066 74.5908C91.4519 74.6317 91.7381 74.7137 92.0243 74.7546C92.3106 74.8365 92.5968 74.8775 92.8421 75.0004C93.0875 75.0823 93.3737 75.2052 93.5781 75.3281C93.8235 75.451 94.0279 75.6148 94.1915 75.8196C94.355 75.9835 94.5186 76.2293 94.6004 76.475C94.723 76.7208 94.7639 77.0076 94.7639 77.3762C94.7639 77.7858 94.6822 78.1135 94.5186 78.4412C94.355 78.7689 94.1097 79.0557 93.8235 79.3015C93.5373 79.5472 93.1692 79.7111 92.8012 79.834C92.4741 79.9569 92.0243 79.9978 91.5337 79.9978Z" fill="#FF8800"/>
<path d="M106.336 70.8242C106.949 70.8242 107.521 70.9471 108.053 71.1519C108.585 71.3567 109.034 71.6844 109.402 72.0941C109.77 72.5037 110.057 72.9952 110.302 73.5278C110.506 74.1012 110.629 74.7157 110.629 75.412C110.629 76.1084 110.506 76.7228 110.302 77.2963C110.097 77.8698 109.811 78.3613 109.443 78.771C109.075 79.1806 108.625 79.5083 108.094 79.7131C107.562 79.9179 106.99 80.0408 106.377 80.0408C105.763 80.0408 105.191 79.9179 104.659 79.7131C104.128 79.5083 103.678 79.1806 103.31 78.771C102.942 78.3613 102.656 77.8698 102.451 77.2963C102.247 76.7228 102.124 76.1084 102.124 75.412C102.124 74.7157 102.247 74.1012 102.451 73.5278C102.656 72.9543 102.942 72.4627 103.351 72.0941C103.76 71.7254 104.168 71.3977 104.7 71.1519C105.15 70.9061 105.722 70.8242 106.336 70.8242ZM106.336 79.0167C106.785 79.0167 107.194 78.9348 107.562 78.771C107.93 78.6071 108.257 78.3613 108.544 78.0746C108.83 77.7469 109.034 77.3782 109.157 76.9276C109.321 76.4771 109.402 75.9855 109.402 75.412C109.402 74.8386 109.321 74.347 109.157 73.8964C108.993 73.4458 108.789 73.0772 108.544 72.7904C108.257 72.5037 107.971 72.2579 107.603 72.0941C107.235 71.9302 106.826 71.8483 106.417 71.8483C105.968 71.8483 105.559 71.9302 105.191 72.0941C104.823 72.2579 104.496 72.5037 104.209 72.7904C103.923 73.1181 103.719 73.4868 103.555 73.9374C103.392 74.388 103.31 74.8795 103.31 75.453C103.31 76.0265 103.392 76.518 103.555 76.9686C103.719 77.4192 103.923 77.7879 104.168 78.1156C104.455 78.4433 104.741 78.6481 105.109 78.8119C105.477 78.9348 105.886 79.0167 106.336 79.0167Z" fill="#FF8800"/>
<path d="M123.632 79.8772H118.112V70.9883H119.298V78.8121H123.632V79.8772Z" fill="#FF8800"/>
<path d="M134.549 79.998C134.018 79.998 133.527 79.9571 133.159 79.8342C132.791 79.7113 132.464 79.5884 132.178 79.3836C131.891 79.1788 131.728 78.974 131.564 78.7282C131.401 78.4824 131.319 78.1957 131.237 77.909C131.155 77.6222 131.114 77.3355 131.074 77.0078C131.074 76.6801 131.033 76.3933 131.033 76.1066V70.9453H132.219V76.0656C132.219 76.6801 132.259 77.1307 132.382 77.5403C132.505 77.909 132.627 78.1957 132.832 78.4005C133.036 78.6053 133.282 78.7692 133.568 78.8101C133.854 78.8921 134.181 78.933 134.549 78.933C134.917 78.933 135.244 78.8921 135.531 78.8101C135.817 78.7282 136.062 78.6053 136.267 78.3595C136.471 78.1138 136.594 77.868 136.716 77.4993C136.798 77.1307 136.88 76.6391 136.88 76.0656V70.9453H138.066V76.1066C138.066 76.721 138.025 77.2536 137.902 77.7451C137.779 78.2367 137.616 78.6463 137.33 78.974C137.084 79.3017 136.716 79.5475 136.267 79.7523C135.817 79.9571 135.244 79.998 134.549 79.998Z" fill="#FF8800"/>
<path d="M153.359 73.6505H152.132C152.132 73.3638 152.05 73.118 151.928 72.8722C151.805 72.6265 151.641 72.4626 151.396 72.2988C151.151 72.1349 150.946 72.012 150.66 71.9301C150.374 71.8482 150.088 71.8072 149.76 71.8072C149.311 71.8072 148.902 71.8891 148.534 72.053C148.166 72.2168 147.88 72.4217 147.593 72.7494C147.348 73.0361 147.144 73.4457 147.021 73.8553C146.898 74.3059 146.816 74.7975 146.816 75.4119C146.816 75.9854 146.898 76.5179 147.021 76.9275C147.144 77.3781 147.348 77.7468 147.593 78.0745C147.839 78.3612 148.166 78.607 148.493 78.7709C148.861 78.9347 149.229 79.0166 149.679 79.0166C150.006 79.0166 150.333 78.9757 150.619 78.8938C150.905 78.8118 151.151 78.6889 151.355 78.5251C151.56 78.3612 151.723 78.1564 151.846 77.9106C151.968 77.6649 152.05 77.3781 152.091 77.0504H153.318C153.277 77.542 153.154 77.9516 152.95 78.3203C152.745 78.6889 152.5 79.0166 152.173 79.2624C151.846 79.5082 151.478 79.713 151.069 79.8359C150.66 79.9588 150.169 80.0407 149.679 80.0407C149.065 80.0407 148.493 79.9178 147.961 79.713C147.471 79.5082 147.021 79.1805 146.653 78.7709C146.285 78.3612 145.999 77.8697 145.835 77.3372C145.631 76.7637 145.549 76.1493 145.549 75.4119C145.549 74.7156 145.631 74.0602 145.835 73.4867C146.04 72.9132 146.326 72.4217 146.653 72.012C147.021 71.6024 147.43 71.3157 147.961 71.0699C148.493 70.8651 149.024 70.7422 149.679 70.7422C150.128 70.7422 150.578 70.8241 151.028 70.947C151.478 71.0699 151.805 71.2747 152.132 71.5205C152.459 71.7663 152.704 72.053 152.909 72.4217C153.195 72.8313 153.318 73.2409 153.359 73.6505Z" fill="#FF8800"/>
<path d="M162.313 79.8772H161.127V70.9883H162.313V79.8772Z" fill="#FF8800"/>
<path d="M174.294 70.8242C174.907 70.8242 175.48 70.9471 176.011 71.1519C176.543 71.3567 176.993 71.6844 177.361 72.0941C177.729 72.5037 178.015 72.9952 178.26 73.5278C178.465 74.1012 178.588 74.7157 178.588 75.412C178.588 76.1084 178.465 76.7228 178.26 77.2963C178.056 77.8698 177.77 78.3613 177.402 78.771C177.034 79.1806 176.584 79.5083 176.052 79.7131C175.521 79.9179 174.948 80.0408 174.335 80.0408C173.722 80.0408 173.149 79.9179 172.618 79.7131C172.086 79.5083 171.636 79.1806 171.268 78.771C170.9 78.3613 170.614 77.8698 170.41 77.2963C170.205 76.7228 170.083 76.1084 170.083 75.412C170.083 74.7157 170.205 74.1012 170.41 73.5278C170.614 72.9543 170.9 72.4627 171.309 72.0941C171.718 71.7254 172.127 71.3977 172.659 71.1519C173.108 70.9061 173.681 70.8242 174.294 70.8242ZM174.253 79.0167C174.703 79.0167 175.112 78.9348 175.48 78.771C175.848 78.6071 176.175 78.3613 176.461 78.0746C176.747 77.7469 176.952 77.3782 177.075 76.9276C177.238 76.4771 177.32 75.9855 177.32 75.412C177.32 74.8386 177.238 74.347 177.075 73.8964C176.911 73.4458 176.707 73.0772 176.461 72.7904C176.175 72.5037 175.889 72.2579 175.521 72.0941C175.153 71.9302 174.744 71.8483 174.335 71.8483C173.885 71.8483 173.476 71.9302 173.108 72.0941C172.74 72.2579 172.413 72.5037 172.127 72.7904C171.841 73.1181 171.636 73.4868 171.473 73.9374C171.309 74.388 171.227 74.8795 171.227 75.453C171.227 76.0265 171.309 76.518 171.473 76.9686C171.636 77.4192 171.841 77.7879 172.086 78.1156C172.372 78.4433 172.659 78.6481 173.027 78.8119C173.435 78.9348 173.844 79.0167 174.253 79.0167Z" fill="#FF8800"/>
<path d="M193.062 79.8772H191.836L187.174 72.8726V79.8772H186.07V70.9883H187.297L191.958 78.0338V70.9883H193.062V79.8772Z" fill="#FF8800"/>
<path d="M207.701 79.8772H201.077V70.9883H207.496V72.0533H202.222V74.7568H207.128V75.8219H202.222V78.8531H207.701V79.8772Z" fill="#FF8800"/>
<path d="M218.7 79.9978C218.086 79.9978 217.514 79.9159 217.064 79.793C216.614 79.6701 216.205 79.4243 215.878 79.1786C215.551 78.9328 215.347 78.6051 215.183 78.2364C215.02 77.8678 214.938 77.4581 214.897 77.0076H216.042C216.083 77.3353 216.165 77.622 216.328 77.8678C216.492 78.1135 216.655 78.3184 216.901 78.4822C217.146 78.6461 217.391 78.7689 217.718 78.8509C218.005 78.9328 218.332 78.9738 218.7 78.9738C219.027 78.9738 219.313 78.9328 219.599 78.8509C219.885 78.7689 220.09 78.687 220.294 78.5641C220.499 78.4412 220.622 78.2774 220.744 78.0726C220.867 77.8678 220.908 77.663 220.908 77.4581C220.908 77.2124 220.867 77.0076 220.744 76.8437C220.662 76.6799 220.499 76.516 220.253 76.3931C220.049 76.2702 219.763 76.1473 219.395 76.0654C219.027 75.9835 218.618 75.8606 218.086 75.7377C217.596 75.6148 217.146 75.4919 216.778 75.3691C216.41 75.2052 216.124 75.0414 215.878 74.8365C215.633 74.6317 215.469 74.4269 215.347 74.1402C215.224 73.8944 215.183 73.6077 215.183 73.28C215.183 72.9113 215.265 72.5836 215.429 72.2969C215.592 72.0101 215.797 71.7234 216.083 71.5186C216.369 71.3138 216.696 71.109 217.064 70.9861C217.473 70.8632 217.882 70.7812 218.373 70.7812C218.863 70.7812 219.313 70.8222 219.722 70.9451C220.131 71.068 220.499 71.2318 220.785 71.4776C221.071 71.7234 221.317 71.9692 221.48 72.3378C221.644 72.7065 221.726 73.0342 221.766 73.4438H220.621C220.499 72.3788 219.763 71.8463 218.413 71.8463C217.759 71.8463 217.228 71.9692 216.901 72.2149C216.533 72.4607 216.369 72.7884 216.369 73.198C216.369 73.3619 216.41 73.5257 216.451 73.6896C216.533 73.8125 216.614 73.9354 216.778 74.0583C216.941 74.1811 217.146 74.2631 217.391 74.345C217.637 74.4269 217.964 74.5088 218.373 74.5908C218.618 74.6317 218.904 74.7137 219.19 74.7546C219.477 74.8365 219.763 74.8775 220.008 75.0004C220.253 75.0823 220.54 75.2052 220.744 75.3281C220.99 75.451 221.194 75.6148 221.358 75.8196C221.521 75.9835 221.685 76.2293 221.766 76.475C221.889 76.7208 221.93 77.0076 221.93 77.3762C221.93 77.7858 221.848 78.1135 221.685 78.4412C221.521 78.7689 221.276 79.0557 220.989 79.3015C220.703 79.5472 220.335 79.7111 219.967 79.834C219.64 79.9569 219.19 79.9978 218.7 79.9978Z" fill="#FF8800"/>
</g>
<defs>
<clipPath id="clip0">
<rect width="238.754" height="80" fill="white" transform="translate(0.186523)"/>
</clipPath>
</defs>
</svg>
