<svg xmlns="http://www.w3.org/2000/svg" width="18" height="18" viewBox="0 0 18 18">
  <g id="a5d9f7d4-4ec0-4106-b8eb-8e5300067bf2" data-name="Capa 2">
    <g id="aa616e08-583f-4684-802d-6295178da002" data-name="Capa 1">
      <path d="M0,9A9,9,0,1,0,9,0,9,9,0,0,0,0,9ZM16.36,9A7.37,7.37,0,1,1,9,1.64,7.37,7.37,0,0,1,16.36,9Z" fill="#002ea8"/>
      <path d="M8,4.09v1A2.44,2.44,0,0,0,6.38,7.36,2.47,2.47,0,0,0,8.84,9.82a.82.82,0,0,1,.81.82.81.81,0,0,1-.81.81,1.48,1.48,0,0,1-1.07-.62.82.82,0,0,0-1.15-.1.83.83,0,0,0-.1,1.16A3.3,3.3,0,0,0,8,13v1a.82.82,0,0,0,.82.82.82.82,0,0,0,.81-.82V13a2.45,2.45,0,0,0-.81-4.77A.82.82,0,0,1,8,7.36a.82.82,0,0,1,.82-.81A1.31,1.31,0,0,1,9.72,7,.82.82,0,0,0,10.86,5.8a3.2,3.2,0,0,0-1.21-.75v-1a.82.82,0,0,0-.81-.82A.82.82,0,0,0,8,4.09Z" fill="#002ea8"/>
    </g>
  </g>
</svg>
