<svg width="21" height="21" viewBox="0 0 21 21" fill="none" xmlns="http://www.w3.org/2000/svg">
<path d="M10.9984 20.5C5.47553 20.5 0.998383 16.0228 0.998383 10.5C0.998383 4.97715 5.47553 0.5 10.9984 0.5C16.5212 0.5 20.9984 4.97715 20.9984 10.5C20.9923 16.0203 16.5187 20.4939 10.9984 20.5ZM2.99838 10.672C3.0457 15.0732 6.63949 18.6095 11.0409 18.586C15.4424 18.5622 18.9979 14.9875 18.9979 10.586C18.9979 6.18451 15.4424 2.60977 11.0409 2.586C6.63949 2.56246 3.0457 6.09876 2.99838 10.5V10.672ZM11.9984 15.5H9.99838V11.5H5.99838V9.5H9.99838V5.5H11.9984V9.5H15.9984V11.5H11.9984V15.5Z" fill="#002EA8"/>
</svg>
