<svg width="17" height="17" viewBox="0 0 17 17" fill="none" xmlns="http://www.w3.org/2000/svg">
<path d="M1.32706 0.56036C1.2314 0.512516 1.12424 0.492479 1.01775 0.502528C0.911268 0.512578 0.809742 0.55231 0.724722 0.617206C0.639702 0.682102 0.574602 0.769557 0.536827 0.869621C0.499052 0.969686 0.490118 1.07834 0.511041 1.18323L2.11451 6.72624C2.14441 6.82954 2.20285 6.9223 2.28311 6.99387C2.36338 7.06544 2.4622 7.11291 2.56824 7.13082L9.07127 8.21999C9.37756 8.28057 9.37756 8.71943 9.07127 8.78001L2.56824 9.86918C2.4622 9.88709 2.36338 9.93456 2.28311 10.0061C2.20285 10.0777 2.14441 10.1705 2.11451 10.2738L0.511041 15.8168C0.490118 15.9217 0.499052 16.0303 0.536827 16.1304C0.574602 16.2304 0.639702 16.3179 0.724722 16.3828C0.809742 16.4477 0.911268 16.4874 1.01775 16.4975C1.12424 16.5075 1.2314 16.4875 1.32706 16.4396L16.1846 9.01087C16.2794 8.96336 16.3591 8.89042 16.4148 8.80019C16.4705 8.70997 16.5 8.60603 16.5 8.5C16.5 8.39397 16.4705 8.29003 16.4148 8.19981C16.3591 8.10958 16.2794 8.03664 16.1846 7.98913L1.32706 0.56036Z" fill="white"/>
</svg>
