<svg width="64" height="65" viewBox="0 0 64 65" fill="none" xmlns="http://www.w3.org/2000/svg">
<rect opacity="0.05" x="0.5" y="1" width="63" height="63" rx="23.5" stroke="#0000FF"/>
<rect opacity="0.2" x="4.5" y="5" width="55" height="55" rx="19.5" stroke="#0000FF"/>
<rect opacity="0.4" x="8.5" y="9" width="47" height="47" rx="15.5" stroke="#0000FF"/>
<rect x="12" y="12.5" width="40" height="40" rx="12" fill="#0000FF"/>
<path d="M42 35.8916L40.1836 35.0529L39.0801 32.1639H34.9684V30.8971L35.0391 30.8287C35.588 30.2786 35.9774 29.5898 36.1658 28.8359C36.3542 28.0819 36.3344 27.2909 36.1087 26.5473C35.8829 25.8037 35.4597 25.1352 34.8839 24.6132C34.3082 24.0912 33.6016 23.7351 32.8395 23.583C32.0774 23.431 31.2883 23.4885 30.5563 23.7496C29.8243 24.0106 29.1769 24.4654 28.683 25.0654C28.1891 25.6655 27.8673 26.3882 27.7518 27.1568C27.6364 27.9253 27.7316 28.7107 28.0274 29.4294H22V39.9768H24.4454C24.5708 40.3146 24.7966 40.6061 25.0925 40.8119C25.3884 41.0177 25.7402 41.128 26.1006 41.128C26.4611 41.128 26.8129 41.0177 27.1088 40.8119C27.4047 40.6061 27.6305 40.3146 27.7559 39.9768H36.2419C36.3673 40.3146 36.5931 40.6061 36.889 40.8119C37.1849 41.0177 37.5367 41.128 37.8972 41.128C38.2576 41.128 38.6094 41.0177 38.9053 40.8119C39.2012 40.6061 39.427 40.3146 39.5524 39.9768H41.9978L42 35.8916ZM38.8704 34.8984H37.3123V33.3358H38.2768L38.8704 34.8984ZM32 24.6645C32.6177 24.6651 33.2214 24.8488 33.7348 25.1924C34.2482 25.536 34.6482 26.024 34.8844 26.5948C35.1205 27.1656 35.1822 27.7936 35.0617 28.3995C34.9411 29.0054 34.6437 29.5619 34.207 29.9988L32 32.2058L29.793 29.9988C29.3563 29.5619 29.0589 29.0054 28.9383 28.3995C28.8178 27.7936 28.8795 27.1656 29.1156 26.5948C29.3518 26.024 29.7518 25.536 30.2652 25.1924C30.7786 24.8488 31.3823 24.6651 32 24.6645ZM23.1719 30.6013H28.7513C28.8175 30.6786 28.8881 30.7536 28.9609 30.822L32 33.8655L33.7965 32.069V38.8048H27.7581C27.6327 38.4669 27.4069 38.1755 27.111 37.9697C26.8151 37.7639 26.4633 37.6536 26.1028 37.6536C25.7424 37.6536 25.3906 37.7639 25.0947 37.9697C24.7988 38.1755 24.573 38.4669 24.4476 38.8048H23.1719V30.6013ZM26.1028 39.9768C25.9869 39.9772 25.8735 39.9433 25.7768 39.8793C25.6801 39.8154 25.6045 39.7242 25.5596 39.6174C25.5146 39.5105 25.5023 39.3928 25.5242 39.2789C25.546 39.1651 25.6011 39.0603 25.6825 38.9777C25.7638 38.8951 25.8678 38.8385 25.9813 38.8149C26.0948 38.7913 26.2127 38.8019 26.3202 38.8452C26.4277 38.8886 26.52 38.9628 26.5854 39.0585C26.6508 39.1542 26.6864 39.2671 26.6877 39.3831C26.6886 39.4605 26.6741 39.5374 26.6451 39.6092C26.6162 39.6811 26.5733 39.7465 26.5189 39.8017C26.4645 39.8569 26.3998 39.9008 26.3284 39.9308C26.257 39.9608 26.1803 39.9765 26.1028 39.9768ZM37.8972 39.9768C37.7813 39.9767 37.6681 39.9425 37.5717 39.8783C37.4753 39.814 37.4001 39.7227 37.3554 39.6158C37.3108 39.509 37.2988 39.3913 37.3209 39.2776C37.3431 39.1639 37.3983 39.0593 37.4798 38.9769C37.5612 38.8945 37.6652 38.8381 37.7786 38.8147C37.8921 38.7913 38.0099 38.802 38.1173 38.8454C38.2246 38.8888 38.3168 38.9631 38.3821 39.0587C38.4474 39.1544 38.4829 39.2672 38.4842 39.3831C38.4851 39.4607 38.4706 39.5378 38.4414 39.6098C38.4123 39.6817 38.3692 39.7473 38.3146 39.8025C38.26 39.8577 38.195 39.9015 38.1234 39.9314C38.0517 39.9614 37.9748 39.9768 37.8972 39.9768ZM40.8281 38.8048H39.5546C39.4292 38.4669 39.2034 38.1755 38.9075 37.9697C38.6116 37.7639 38.2598 37.6536 37.8994 37.6536C37.5389 37.6536 37.1871 37.7639 36.8912 37.9697C36.5953 38.1755 36.3695 38.4669 36.2441 38.8048H34.9684V33.3358H36.1404V36.0725H39.5921L40.8281 36.6419V38.8048Z" fill="white"/>
<path d="M32 29.7428C32.3863 29.7428 32.7639 29.6283 33.0851 29.4137C33.4063 29.199 33.6567 28.894 33.8045 28.5371C33.9523 28.1802 33.991 27.7875 33.9156 27.4086C33.8403 27.0297 33.6543 26.6817 33.3811 26.4085C33.1079 26.1353 32.7599 25.9493 32.381 25.874C32.0021 25.7986 31.6094 25.8373 31.2525 25.9851C30.8956 26.1329 30.5906 26.3833 30.3759 26.7045C30.1613 27.0257 30.0468 27.4033 30.0468 27.7896C30.0473 28.3075 30.2533 28.8039 30.6195 29.1701C30.9857 29.5363 31.4821 29.7423 32 29.7428ZM32 27.0084C32.1545 27.0084 32.3055 27.0542 32.434 27.14C32.5625 27.2259 32.6626 27.3479 32.7218 27.4907C32.7809 27.6334 32.7964 27.7905 32.7662 27.9421C32.7361 28.0936 32.6617 28.2328 32.5524 28.3421C32.4432 28.4514 32.3039 28.5258 32.1524 28.5559C32.0008 28.5861 31.8437 28.5706 31.701 28.5114C31.5582 28.4523 31.4362 28.3522 31.3504 28.2237C31.2645 28.0952 31.2187 27.9442 31.2187 27.7896C31.2193 27.5826 31.3018 27.3842 31.4482 27.2378C31.5945 27.0914 31.7929 27.0089 32 27.0084Z" fill="white"/>
</svg>