<svg width="64" height="65" viewBox="0 0 64 65" fill="none" xmlns="http://www.w3.org/2000/svg">
<rect opacity="0.05" x="0.5" y="1" width="63" height="63" rx="23.5" stroke="#0000FF"/>
<rect opacity="0.2" x="4.5" y="5" width="55" height="55" rx="19.5" stroke="#0000FF"/>
<rect opacity="0.4" x="8.5" y="9" width="47" height="47" rx="15.5" stroke="#0000FF"/>
<rect x="12" y="12.5" width="40" height="40" rx="12" fill="#0000FF"/>
<path d="M23 32.5C23 37.4582 27.0336 41.5 32 41.5C36.9664 41.5 41 37.4664 41 32.5C41 27.5336 36.9582 23.5 32 23.5C27.0418 23.5 23 27.5336 23 32.5ZM39.3555 32.5C39.3555 36.5582 36.05 39.8636 31.9918 39.8636C27.9336 39.8636 24.6282 36.5582 24.6282 32.5C24.6282 28.4418 27.9336 25.1364 31.9918 25.1364C36.05 25.1364 39.3555 28.4418 39.3555 32.5Z" fill="white"/>
<path d="M31.0182 27.5909V28.5482C30.0609 28.8836 29.3818 29.7918 29.3818 30.8636C29.3818 32.2136 30.4864 33.3182 31.8364 33.3182C32.2864 33.3182 32.6545 33.6864 32.6545 34.1364C32.6545 34.5864 32.2864 34.9545 31.8364 34.9545C31.4845 34.9545 31.1082 34.7336 30.7727 34.3327C30.4782 33.9891 29.9627 33.94 29.6191 34.2345C29.2755 34.5291 29.2264 35.0445 29.5209 35.3882C29.9545 35.9118 30.47 36.2718 31.0182 36.4518V37.4091C31.0182 37.8591 31.3864 38.2273 31.8364 38.2273C32.2864 38.2273 32.6545 37.8591 32.6545 37.4091V36.4518C33.6036 36.1164 34.2909 35.2082 34.2909 34.1364C34.2909 32.7864 33.1864 31.6818 31.8364 31.6818C31.3864 31.6818 31.0182 31.3136 31.0182 30.8636C31.0182 30.4136 31.3864 30.0455 31.8364 30.0455C32.1227 30.0455 32.4336 30.1927 32.72 30.4709C33.0473 30.7818 33.5627 30.7736 33.8736 30.4545C34.1845 30.1273 34.1764 29.6118 33.8573 29.3009C33.44 28.9 33.0227 28.6709 32.6545 28.5482V27.5909C32.6545 27.1409 32.2864 26.7727 31.8364 26.7727C31.3864 26.7727 31.0182 27.1409 31.0182 27.5909Z" fill="white"/>
</svg>