<svg width="28" height="27" viewBox="0 0 28 27" fill="none" xmlns="http://www.w3.org/2000/svg">
<path d="M14.0005 26.8334C11.9845 26.839 9.99409 26.3829 8.18179 25.5C7.51852 25.1774 6.88303 24.8006 6.28179 24.3733L6.09912 24.24C4.44555 23.0195 3.09362 21.4363 2.14713 19.612C1.16811 17.7238 0.660335 15.6269 0.667058 13.5C0.667058 6.13621 6.63666 0.166672 14.0005 0.166672C21.3643 0.166672 27.3339 6.13621 27.3339 13.5C27.3405 15.6259 26.8332 17.7218 25.8551 19.6093C24.9099 21.4326 23.5599 23.0152 21.9085 24.236C21.2855 24.692 20.6244 25.0935 19.9325 25.436L19.8258 25.4893C18.0124 26.377 16.0195 26.8367 14.0005 26.8334ZM14.0005 20.1666C12.0024 20.1628 10.1707 21.2787 9.25779 23.056C12.2463 24.5363 15.7546 24.5363 18.7431 23.056V23.0493C17.8291 21.274 15.9973 20.1606 14.0005 20.1666ZM14.0005 17.5C16.8886 17.5038 19.5517 19.0602 20.9725 21.5747L20.9925 21.5573L21.0111 21.5413L20.9885 21.5613L20.9751 21.572C24.3471 18.6588 25.5528 13.9565 23.9987 9.78015C22.4445 5.60384 18.4579 2.83376 14.0018 2.83376C9.54567 2.83376 5.55912 5.60384 4.00493 9.78015C2.45074 13.9565 3.65646 18.6588 7.02846 21.572C8.45014 19.0587 11.1129 17.5035 14.0005 17.5ZM14.0005 16.1667C11.0549 16.1667 8.66713 13.7789 8.66713 10.8333C8.66713 7.88782 11.0549 5.50001 14.0005 5.50001C16.946 5.50001 19.3338 7.88782 19.3338 10.8333C19.3338 12.2478 18.7719 13.6044 17.7717 14.6046C16.7715 15.6048 15.4149 16.1667 14.0005 16.1667ZM14.0005 8.16667C12.5277 8.16667 11.3338 9.36058 11.3338 10.8333C11.3338 12.3061 12.5277 13.5 14.0005 13.5C15.4732 13.5 16.6671 12.3061 16.6671 10.8333C16.6671 9.36058 15.4732 8.16667 14.0005 8.16667Z" fill="#002EA8"/>
</svg>
